<?xml version="1.0" encoding="UTF-8"?>
<svg id="Layer_1" data-name="Layer 1" xmlns="http://www.w3.org/2000/svg" viewBox="0 0 1400.1 205.06">
  <defs>
    <style>
      .cls-1 {
        fill: #fff;
      }
    </style>
  </defs>
  <path class="cls-1" d="M160.51,6.36c-2.95-.16-6.05-.16-9-.16C71.41,6.21,14.13,39.89,11.65,60.69c-1.24,9.93,15.52,15.37,16.77,15.99,0,0-.16,.16-.62,.16C17.39,76.68-.31,71.87,0,58.21,.94,24.68,72.49,0,143.75,0c3.41,0,6.68,0,10.09,.16,32.75,1.09,64.73,9.31,76.68,15.83,2.17,1.09,.93,2.02-.78,1.4-2.64-1.24-31.67-9.78-69.23-11.02ZM94.54,46.41c7.3-9.16,13.19-15.37,17.54-19.56,4.5-4.35,8.07-6.98,10.87-6.98,5.59,0,12.11,4.35,13.5,10.87-1.09-1.4-2.48-1.86-3.73-1.86-3.57,0-10.4,5.59-19.09,15.83-26.39,31.36-70.01,97.95-68.77,108.19,3.57-.16,7.14-1.55,11.8-4.5-.31,2.95-11.02,10.71-15.21,10.87-2.64,.15-5.43-1.55-5.74-5.9-1.09-14.75,32.13-72.8,58.83-106.95Z"/>
  <path class="cls-1" d="M110.99,105.86c17.7-18.78,44.4-37.41,49.67-37.41,3.57,0,8.54,8.38,6.67,10.09-4.03,3.11-27.79,35.86-28.25,43.15,9.62-2.64,31.67-24.22,41.45-33.37,1.09-.78,1.86,.46,1.4,.93-11.18,11.95-29.65,31.36-41.29,38.19-1.24,.78-3.57,1.86-5.28,2.33-.62,.16-1.24,.31-2.33,0-3.1-1.09-6.68-6.52-6.68-9.31,0-8.85,16.61-33.68,24.68-40.98-9.16,4.19-22.35,13.66-33.53,24.21-1.55,1.4-7.76,7.92-7.76,7.92-4.66,4.97-8.07,9.62-9.62,13.35-1.4,3.11-1.09,5.28,2.48,5.74-1.86,.78-3.57,.16-5.12-.78-1.09-.46-4.5-3.73-5.59-6.21-.47-1.24-.16-6.21,4.5-16.45,8.23-18.78,29.34-49.21,43.93-68.61,4.19-5.74,12.11-15.21,18.78-20.8,2.48-1.86,4.66-2.79,5.9-2.79,8.69,0,14.75,9.16,11.8,7.45-3.11-1.55-7.76,1.71-13.66,8.38-15.21,17.23-39.58,49.98-52.16,74.97Z"/>
  <path class="cls-1" d="M206.92,99.19c-4.66,4.66-34.93,30.73-41.45,30.73-.31,0-1.09-.31-1.4-.46-2.79-1.4-6.83-7.3-6.83-10.4,0-16.92,35.55-51.54,64.11-51.54,5.9,0,13.66,2.48,13.66,9.78,0,2.64-1.4,5.28-2.95,7.3-.31,.16-.62,0-.47-.16,.78-1.4,1.71-3.26,1.71-5.59,0-4.66-2.95-6.98-7.61-6.67-9,.46-20.34,6.98-30.42,15.52-14.75,12.57-26.39,32.13-24.99,32.91,.31,.15,.62,.15,1.09,0,5.12-1.71,26.85-17.39,34.93-24.22,2.79-2.48,12.88-12.26,16.76-14.44,3.11-1.55,8.38,6.98,7.76,8.85-.78-1.55-14.75,15.37-19.4,25.3-.93,2.17-1.55,4.04-1.55,5.28,9.78-2.79,31.98-24.06,41.6-33.06,.78-.78,1.55,.46,1.09,.93-13.5,14.75-38.81,40.67-48.12,40.67-.78,0-1.55-.31-2.64-.93-2.17-1.24-5.12-4.5-5.12-7.3,0-1.55,.62-3.42,1.24-5.74,1.86-5.74,6.05-12.88,9-16.76Z"/>
  <path class="cls-1" d="M283.29,121.54c9.78-2.64,31.98-23.91,41.91-33.22,.93-.78,1.71,.46,1.24,.93-13.5,14.75-38.81,40.36-48.12,40.36-1.55,0-3.26-1.4-4.81-3.26-1.71-2.02-2.79-4.35-2.79-6.05,0-8.85,18.01-34.77,26.08-42.07-12.73,5.74-35.55,24.53-47.03,36.94-2.02,2.02-3.88,4.35-5.59,6.52-4.19,4.97-5.28,9.16-2.95,10.25-4.66,1.09-8.38-3.88-9.62-8.38-.31-1.09,.46-5.28,4.35-12.42,3.73-7.3,9.62-16.45,14.75-23.59,5.59-7.92,12.42-16.14,16.45-19.25,.62-.62,1.55-.78,2.02-.78,3.88,0,9.78,6.05,9.78,9.93,0,.62-.62-.15-1.86-.31-2.02-.16-7.76,6.36-12.42,12.42-7.3,9.62-15.37,21.11-17.7,25.46,1.71-2.48,4.66-5.59,7.92-8.69,17.39-17.07,44.71-38.03,49.98-38.03,3.73,0,8.69,8.38,6.67,10.09-3.88,3.1-27.94,35.86-28.25,43.15Z"/>
  <path class="cls-1" d="M321.47,87.08c10.71-18.01,21.73-33.84,31.67-47.03,7.92-10.56,14.59-18.16,19.56-22.2,2.64-2.02,4.66-2.79,5.9-2.79,9,0,14.9,9.16,12.11,7.45-4.19-2.02-10.09,3.88-19.25,14.44-1.71,2.02-9.31,11.8-9.31,11.8-9.31,11.8-20.96,29.49-29.18,42.69,12.26-13.04,30.89-27.48,38.5-27.48,3.42,0,7.45,6.52,7.45,9.78,0,11.49-31.67,31.51-48.9,29.96,6.67,17.23,27.16,40.98,47.5,40.98,5.43,0,10.87-1.71,15.99-5.59,.46-.47,1.71-.31,.93,.46-6.52,6.21-13.82,8.85-21.27,8.85-20.02,0-40.98-19.25-51.54-37.41-3.73,6.99-12.26,18.94-5.28,19.71-1.86,.78-3.57,.16-5.12-.78-1.09-.46-4.19-3.73-5.43-6.21-.31-1.24-.31-6.36,4.66-16.45,1.4-3.1,3.11-6.21,4.66-9.31-.62-2.48-1.09-4.81-.47-6.52,.93-2.48,3.88-3.73,6.83-4.35Zm7.14,11.64c.31,1.55,.62,2.64,.93,3.11,13.66-1.86,31.51-21.89,36.17-31.2-10.71,2.64-35.55,25.92-37.1,28.1Z"/>
  <path class="cls-1" d="M460.7,104.47c-12.11,15.06-36.79,59.3-45.95,76.53,12.26-16.92,34.77-37.57,39.27-38.96,.78,0,.78,.93,.78,.93-22.2,17.7-42.69,50.29-44.4,57.74-.31,.31-.93,.47-1.71,.47-6.21,.62-8.54-7.92-8.07-10.71,.47-4.66,3.73-11.49,6.52-18.01,8.07-17.7,29.18-58.83,51.07-83.98-15.68,15.99-37.57,39.27-46.88,41.14h-1.24c-2.48,0-7.3-4.19-7.3-7.92,0-6.68,8.54-22.35,17.39-34.62,5.28-7.61,11.64-14.59,15.52-17.7,.78-.78,1.71-.93,2.17-.93,3.73,0,9.62,6.05,9.62,10.09,0,.62-.46-.15-1.71-.31-2.48-.31-8.85,7.14-14.13,14.12-7.92,10.25-15.52,23.91-15.52,28.41,7.45-3.1,23.28-17.07,30.58-24.21,8.23-7.92,20.33-21.27,28.87-28.1,.93-.78,1.55-.93,2.33-.93,3.57,0,9.62,6.21,9.62,10.09,0,.62-.62-.16-1.71-.31-1.24-.16-3.26,1.24-5.43,3.57-6.52,6.83-12.88,15.21-19.71,23.59Z"/>
  <path class="cls-1" d="M532.1,70.16c-28.1,0-60.54,52.31-51.85,56.04,8.69,3.57,30.89-21.27,41.29-37.1-.78-1.4-2.33-6.05-1.71-7.61,.46-1.55,5.12-6.21,7.14-6.36,1.55-.16,3.26,1.09,3.57,1.55,2.95,4.81,6.68,8.38,12.88,7.92,10.4-.93,16.14-6.99,17.85-6.83-.78,2.17-6.98,7.3-14.59,9.78-3.41,1.09-6.67,1.4-9.16,1.4-2.33,0-3.88-.31-4.66-.62-4.19,20.64-36.32,43-52.78,42.07-7.14-.47-11.8-6.36-11.8-12.26,0-25.3,34-50.61,58.52-50.61,5.9,0,8.38,1.71,9.47,2.64,.78,.47,.31,.47-.31,.47-1.55-.16-2.79-.47-3.88-.47Z"/>
  <path class="cls-1" d="M583.64,89.41c-15.68,15.99-36.48,38.34-45.79,40.2h-1.24c-2.48,0-7.3-4.19-7.3-7.92,0-6.68,8.54-22.35,17.39-34.62,5.43-7.61,11.95-15.06,15.83-18.16,.78-.78,1.71-.93,2.17-.93,3.73,0,9.78,6.05,9.78,10.09,0,.62-.62-.16-2.02-.31-2.33-.31-8.85,7.76-14.13,14.59-7.92,10.4-15.68,23.91-15.68,28.41,7.45-3.1,23.28-17.07,30.73-24.21,8.07-7.92,19.56-21.42,28.41-28.25,.78-.62,1.55-.78,2.17-.78,3.73,0,9.62,6.05,9.62,9.93,0,.62-.47-.15-1.86-.31-1.09,0-3.1,1.4-5.12,3.57-2.33,2.48-6.68,8.07-11.8,14.9-7.76,10.4-13.5,21.42-13.5,25.77,9.78-2.95,31.82-24.06,41.29-33.06,.93-.78,1.71,.46,1.24,.93-13.5,14.75-38.81,40.67-48.12,40.67-.78,0-1.71-.31-2.48-.93-2.48-1.24-5.59-4.81-5.59-7.61,0-1.55,.93-4.35,1.71-6.68,2.64-7.14,8.54-18.16,14.28-25.3Z"/>
  <path class="cls-1" d="M712,17.85c2.48-1.86,4.5-3.1,5.74-3.1,8.85-.47,15.06,8.54,12.11,6.83-5.28-2.48-15.52,12.11-22.04,20.49-11.8,14.75-22.82,31.51-40.05,58.37l.16,.31c11.33-3.73,33.68-15.06,41.45-21.58,.15-.31,.31-.47,.62-.47,.47,0,.78,.47,.78,.78v.31c-4.81,4.66-19.72,14.12-32.6,20.96-2.95,1.55-8.23,4.19-10.56,4.66,1.09,3.1,2.17,9.16,2.17,15.52,0,2.95-.31,6.06-.78,8.85-8.54,44.24-47.35,74.98-54.02,75.29h-.46c-3.11,.15-6.83-5.12-6.99-7.76-.46-8.69,17.54-49.36,42.84-92.21-4.19-3.41,1.86-11.64,6.52-11.64,14.75-23.59,30.42-46.1,42.38-61.47,4.66-6.05,9.16-11.02,12.73-14.13Zm-92.67,177.27c18.32-13.66,42.07-38.03,47.34-70.63,.31-1.55,.47-3.42,.47-5.43,0-4.97-.93-10.71-2.95-13.35-17.85,28.56-39.58,71.87-46.1,88.01-.62,1.24-.62,2.02-.31,2.02,.31,.16,.62,0,1.55-.62Z"/>
  <path class="cls-1" d="M744.13,70.16c-28.1,0-60.54,52.31-51.85,56.04,8.69,3.57,30.89-21.27,41.29-37.1-.78-1.4-2.33-6.05-1.71-7.61,.46-1.55,5.12-6.21,7.14-6.36,1.55-.16,3.26,1.09,3.57,1.55,2.95,4.81,6.68,8.38,12.88,7.92,10.4-.93,16.15-6.99,17.85-6.83-.78,2.17-6.99,7.3-14.59,9.78-3.42,1.09-6.68,1.4-9.16,1.4-2.33,0-3.88-.31-4.66-.62-4.19,20.64-36.33,43-52.78,42.07-7.14-.47-11.8-6.36-11.8-12.26,0-25.3,33.99-50.61,58.52-50.61,5.9,0,8.38,1.71,9.47,2.64,.78,.47,.31,.47-.31,.47-1.55-.16-2.79-.47-3.88-.47Z"/>
  <path class="cls-1" d="M808.24,17.85c2.33-1.86,4.35-3.1,5.75-3.1,8.69-.47,14.9,8.54,11.95,6.83-4.97-2.33-14.12,10.09-20.96,18.94,24.99-1.24,57.75,0,79.94,4.66,1.24,.31,1.86,.62,0,.47-30.74-2.64-59.14-2.48-85.07,1.4-5.74,7.14-10.87,14.9-17.07,24.06-13.5,20.49-25.15,40.2-28.87,50.14,6.68,.78,32.44-24.53,41.6-32.91,.93-.78,1.55,.46,1.09,.93-7.61,8.69-34.62,36.94-43.93,40.36-2.02,.78-3.57,.16-4.97-.62-1.24-.62-4.66-3.88-5.59-6.21-.15-.31-.46-.62-.46-2.33,0-4.66,6.98-19.87,26.08-49.36,4.19-6.36,8.69-13.19,14.44-20.8-14.75,2.95-23.9,10.4-19.87,12.73-2.48,0-7.76-2.95-8.23-7.92-.62-6.98,16.45-11.33,33.84-13.35,12.11-15.83,16.45-20.8,20.33-23.91Z"/>
  <path class="cls-1" d="M874.05,75.13c.78-.62,1.71-.78,2.17-.78,3.73,0,10.4,5.9,10.71,9.93,0,.47-.46-.16-2.02-.31-2.33-.16-5.75,3.73-11.64,13.04-5.59,8.85-10.09,20.8-9.47,22.97,19.56-11.95,44.08-40.51,58.68-63.64,.93-1.24,1.24-1.24,.47,.31-11.64,30.11-56.35,73.27-62.56,73.27-3.88,0-7.76-6.05-7.92-7.3-.78-6.05,3.42-17.07,7.45-25.46-7.14,8.23-17.85,20.33-24.06,25.46-4.81,4.04-9.31,7.92-11.02,7.92-2.95,0-6.83-6.05-7.14-7.3-.31-8.07,7.76-25.61,16.45-38.65,4.66-7.14,7.76-10.87,11.33-13.82,.78-.78,1.71-.93,2.17-.93,4.04,0,10.4,6.05,10.56,10.09,.16,.47-.31-.15-1.71-.31-1.39,0-3.26,1.4-5.43,3.88-6.21,7.14-19.71,28.1-20.96,36.95,4.66-2.48,17.7-13.04,31.98-29.49,5.9-8.69,9-13.35,11.95-15.83Z"/>
  <path class="cls-1" d="M941.26,99.19c-4.66,4.66-34.93,30.73-41.45,30.73-.31,0-1.09-.31-1.4-.46-2.79-1.4-6.83-7.3-6.83-10.4,0-16.92,35.55-51.54,64.11-51.54,5.9,0,13.66,2.48,13.66,9.78,0,2.64-1.4,5.28-2.95,7.3-.31,.16-.62,0-.46-.16,.78-1.4,1.71-3.26,1.71-5.59,0-4.66-2.95-6.98-7.61-6.67-9,.46-20.33,6.98-30.42,15.52-14.75,12.57-26.39,32.13-24.99,32.91,.31,.15,.62,.15,1.09,0,5.12-1.71,26.86-17.39,34.93-24.22,2.79-2.48,12.88-12.26,16.76-14.44,3.11-1.55,8.38,6.98,7.76,8.85-.78-1.55-14.75,15.37-19.4,25.3-.93,2.17-1.55,4.04-1.55,5.28,9.78-2.79,31.98-24.06,41.6-33.06,.78-.78,1.55,.46,1.09,.93-13.5,14.75-38.81,40.67-48.12,40.67-.78,0-1.55-.31-2.64-.93-2.17-1.24-5.12-4.5-5.12-7.3,0-1.55,.62-3.42,1.24-5.74,1.86-5.74,6.05-12.88,9-16.76Z"/>
  <path class="cls-1" d="M1033.93,17.85c2.33-1.86,4.35-3.1,5.75-3.1,8.69-.47,14.9,8.54,11.95,6.83-4.97-2.33-14.12,10.09-20.96,18.94,24.99-1.24,57.75,0,79.94,4.66,1.24,.31,1.86,.62,0,.47-30.74-2.64-59.14-2.48-85.07,1.4-5.74,7.14-10.87,14.9-17.07,24.06-13.5,20.49-25.15,40.2-28.87,50.14,6.68,.78,32.44-24.53,41.6-32.91,.93-.78,1.55,.46,1.09,.93-7.61,8.69-34.62,36.94-43.93,40.36-2.02,.78-3.57,.16-4.97-.62-1.24-.62-4.66-3.88-5.59-6.21-.15-.31-.46-.62-.46-2.33,0-4.66,6.98-19.87,26.08-49.36,4.19-6.36,8.69-13.19,14.44-20.8-14.75,2.95-23.9,10.4-19.87,12.73-2.48,0-7.76-2.95-8.23-7.92-.62-6.98,16.45-11.33,33.84-13.35,12.11-15.83,16.45-20.8,20.33-23.91Z"/>
  <path class="cls-1" d="M1020.89,123.25c14.28-1.55,40.36-22.51,55.42-34.77,.47-.31,1.55,.31,1.09,.78-13.35,12.57-43.31,40.67-62.56,40.67-4.97,0-10.55-4.66-11.33-9.62-.15-1.24-.15-2.79,.31-4.66,1.24-6.52,6.83-17.39,17.23-27.48,12.73-12.57,28.41-20.65,39.43-20.65,3.57,0,8.85,5.28,8.85,7.61,0,5.9-7.61,11.64-12.73,15.52-.31,.31-1.09,0-.78-.47,2.48-2.48,8.85-14.75,7.6-15.83-16.61,.31-47.03,35.39-47.03,46.26,0,2.48,3.1,2.79,4.5,2.64Z"/>
  <path class="cls-1" d="M1077.08,105.86c17.7-18.78,44.4-37.41,49.67-37.41,3.57,0,8.54,8.38,6.68,10.09-4.04,3.11-27.79,35.86-28.25,43.15,9.62-2.64,31.67-24.22,41.45-33.37,1.09-.78,1.86,.46,1.4,.93-11.18,11.95-29.65,31.36-41.29,38.19-1.24,.78-3.57,1.86-5.28,2.33-.62,.16-1.24,.31-2.33,0-3.11-1.09-6.68-6.52-6.68-9.31,0-8.85,16.61-33.68,24.68-40.98-9.16,4.19-22.35,13.66-33.53,24.21-1.55,1.4-7.76,7.92-7.76,7.92-4.66,4.97-8.07,9.62-9.62,13.35-1.4,3.11-1.09,5.28,2.48,5.74-1.86,.78-3.57,.16-5.12-.78-1.09-.46-4.5-3.73-5.59-6.21-.46-1.24-.15-6.21,4.5-16.45,8.23-18.78,29.34-49.21,43.93-68.61,4.19-5.74,12.11-15.21,18.78-20.8,2.49-1.86,4.66-2.79,5.9-2.79,8.69,0,14.75,9.16,11.8,7.45-3.1-1.55-7.76,1.71-13.66,8.38-15.21,17.23-39.58,49.98-52.16,74.97Z"/>
  <path class="cls-1" d="M1130.63,129.77c-2.48-.78-6.36-4.66-6.36-7.45,0-9,22.51-42.84,32.44-50.76,.78-.78,1.71-.93,2.33-.93,3.57,0,9.78,6.21,9.78,10.09,0,.62-.78-.16-2.02-.31-6.36-.62-27.63,34.77-29.49,41.14,9.47-2.48,32.13-24.06,41.6-33.22,1.09-.78,1.86,.46,1.4,.93-13.5,14.59-38.19,39.89-47.81,40.67-.62,0-1.09,0-1.86-.16Zm51.85-77.92c1.4,1.55,2.33,3.88,1.71,3.88-.31,0-1.55-.62-3.26,.16-2.64,1.09-9.78,7.45-11.64,10.09-2.17,2.79-5.43-.47-5.59-3.26-.15-4.5,5.75-14.59,9.78-15.83,3.57-.47,6.99,2.64,9,4.97Z"/>
  <path class="cls-1" d="M1211.81,121.54c9.78-2.64,31.98-23.91,41.91-33.22,.93-.78,1.71,.46,1.24,.93-13.5,14.75-38.81,40.36-48.12,40.36-1.55,0-3.26-1.4-4.81-3.26-1.71-2.02-2.79-4.35-2.79-6.05,0-8.85,18.01-34.77,26.08-42.07-12.73,5.74-35.55,24.53-47.04,36.94-2.02,2.02-3.88,4.35-5.59,6.52-4.19,4.97-5.28,9.16-2.95,10.25-4.66,1.09-8.38-3.88-9.62-8.38-.31-1.09,.46-5.28,4.35-12.42,3.73-7.3,9.62-16.45,14.75-23.59,5.59-7.92,12.42-16.14,16.45-19.25,.62-.62,1.55-.78,2.02-.78,3.88,0,9.78,6.05,9.78,9.93,0,.62-.62-.15-1.86-.31-2.02-.16-7.76,6.36-12.42,12.42-7.3,9.62-15.37,21.11-17.7,25.46,1.71-2.48,4.66-5.59,7.92-8.69,17.39-17.07,44.71-38.03,49.98-38.03,3.73,0,8.69,8.38,6.68,10.09-3.88,3.1-27.94,35.86-28.25,43.15Z"/>
  <path class="cls-1" d="M1289.27,115.8c3.41-1.24,6.83-2.48,10.24-3.57,2.48-.78,4.97-.31,2.79,.47-4.97,2.02-9.93,4.19-14.75,6.21-19.87,34.62-45.48,73.58-75.29,81.49-1.71,.47-3.41,.62-5.12,.62-5.74,0-10.56-2.64-10.56-9.16,0-1.71,.31-3.73,1.09-6.05,6.21-19.71,36.79-44.86,72.49-61.94,3.41-5.9,16.45-29.34,16.45-29.34,.15-.16-3.72,2.64-6.68,5.28-2.33,2.17-10.86,9.78-19.56,16.61-8.85,6.83-18.01,13.5-21.27,13.5-.31,0-1.09-.16-1.55-.46-2.79-1.71-6.68-7.3-6.68-10.4,0-16.92,35.7-51.54,64.11-51.54,6.05,0,13.82,2.48,13.82,9.78,0,2.64-1.55,5.28-2.95,7.3-.31,.16-.46,0-.31-.16,.62-1.4,1.55-3.26,1.55-5.59,0-4.66-2.95-6.98-7.61-6.67-9,.46-20.18,6.98-30.42,15.52-14.75,12.57-26.08,31.67-24.53,32.91,.62,.62,6.83-3.42,13.66-7.92,7.45-4.97,14.75-10.71,19.87-15.06,10.71-9,13.04-11.33,15.68-12.57,2.95-1.4,9.47,6.99,8.85,8.85-.46-.47-1.24-.93-3.88,4.35l-9.47,17.54Zm-21.89,12.88c-28.25,14.9-49.83,32.6-60.69,52.78-1.71,3.1-2.48,5.28-2.48,6.83,0,2.17,1.4,2.95,3.41,2.95,2.18,0,4.81-.93,7.3-2.17,18.16-9.78,36.63-34.77,52.47-60.38Z"/>
  <path class="cls-1" d="M1326.83,129.46c-2.95,.62-6.36-2.02-6.99-4.81-.78-4.35,4.19-12.57,9-13.66,2.95-.62,9.93,1.55,11.33,4.5-5.12,.78-11.33,13.66-13.35,13.97Zm13.82-30.43c0,.47,.46,.78,.78,.78,1.4,0,4.04-2.33,4.04-2.02,0,.47-4.19,5.12-7.3,5.12-2.33,0-3.57-2.33-3.57-4.5,0-18.32,43.15-83.67,54.33-83.67,5.59,0,8.54,2.48,11.18,5.74-8.23-3.26-59.45,70.94-59.45,78.55Z"/>
</svg>