<?xml version="1.0" encoding="UTF-8"?>
<svg id="_레이어_1" data-name="레이어_1" xmlns="http://www.w3.org/2000/svg" viewBox="0 0 2151.49 1659.6">
  <defs>
    <style>
      .cls-1 {
        fill: #325de5;
      }

      .cls-2 {
        fill: #3d77e1;
      }

      .cls-3 {
        fill: #62d2d1;
      }

      .cls-4 {
        fill: #458bde;
      }

      .cls-5 {
        fill: #7fe0d6;
      }

      .cls-6 {
        fill: #4180df;
      }

      .cls-7 {
        fill: #64d6d1;
      }

      .cls-8 {
        fill: #51a9d8;
      }

      .cls-9 {
        fill: #2a4be8;
      }

      .cls-10 {
        fill: #61cfd2;
      }

      .cls-11 {
        fill: #65dad0;
      }

      .cls-12 {
        fill: #3159e6;
      }

      .cls-13 {
        fill: #4790dd;
      }

      .cls-14 {
        fill: #5cc3d4;
      }

      .cls-15 {
        fill: #4387de;
      }

      .cls-16 {
        fill: #3c75e1;
      }

      .cls-17 {
        fill: #3a70e2;
      }

      .cls-18 {
        fill: #58b9d6;
      }

      .cls-19 {
        fill: #3b72e2;
      }

      .cls-20 {
        fill: #4386de;
      }

      .cls-21 {
        fill: #2f54e6;
      }

      .cls-22 {
        fill: #335ee5;
      }

      .cls-23 {
        fill: #56b4d7;
      }

      .cls-24 {
        fill: #3768e3;
      }

      .cls-25 {
        fill: #3e7ae0;
      }

      .cls-26 {
        fill: #3769e3;
      }

      .cls-27 {
        fill: #5ec8d3;
      }

      .cls-28 {
        fill: #448ade;
      }

      .cls-29 {
        fill: #4385de;
      }

      .cls-30 {
        fill: #3f7ae0;
      }

      .cls-31 {
        fill: #3562e4;
      }

      .cls-32 {
        fill: #2c4fe7;
      }

      .cls-33 {
        fill: #3460e5;
      }

      .cls-34 {
        fill: #2f53e6;
      }

      .cls-35 {
        fill: #3c74e2;
      }

      .cls-36 {
        fill: #bfece9;
      }

      .cls-37 {
        fill: #aba9f3;
      }

      .cls-38 {
        fill: #396ee3;
      }

      .cls-39 {
        fill: #325be5;
      }

      .cls-40 {
        fill: #63d4d1;
      }

      .cls-41 {
        fill: #5abed5;
      }

      .cls-42 {
        fill: #57b6d7;
      }

      .cls-43 {
        fill: #458cdd;
      }

      .cls-44 {
        fill: #4a97dc;
      }

      .cls-45 {
        fill: #4182df;
      }

      .cls-46 {
        fill: #4b99dc;
      }

      .cls-47 {
        fill: #66ddd0;
      }

      .cls-48 {
        fill: #64d8d1;
      }

      .cls-49 {
        fill: #3057e6;
      }

      .cls-50 {
        fill: #f7f6fd;
      }

      .cls-51 {
        fill: #3461e4;
      }

      .cls-52 {
        fill: #3665e4;
      }

      .cls-53 {
        fill: #53afd8;
      }

      .cls-54 {
        fill: #4fa4d9;
      }

      .cls-55 {
        fill: #54b0d8;
      }

      .cls-56 {
        fill: #475dea;
      }

      .cls-57 {
        fill: #3666e4;
      }

      .cls-58 {
        fill: #977eee;
      }

      .cls-59 {
        fill: #4d9fda;
      }

      .cls-60 {
        fill: #4181df;
      }

      .cls-61 {
        fill: #396de3;
      }

      .cls-62 {
        fill: #4c9dda;
      }

      .cls-63 {
        fill: #315ae5;
      }

      .cls-64 {
        fill: #3f7de0;
      }

      .cls-65 {
        fill: #5cc4d4;
      }

      .cls-66 {
        fill: #65d9d0;
      }

      .cls-67 {
        fill: #4ea3d9;
      }

      .cls-68 {
        fill: #7babf3;
      }

      .cls-69 {
        fill: #2d51e7;
      }

      .cls-70 {
        fill: #5abdd5;
      }

      .cls-71 {
        fill: #52abd8;
      }

      .cls-72 {
        fill: #4994dc;
      }

      .cls-73 {
        fill: #60ced2;
      }

      .cls-74 {
        fill: #2e53e6;
      }
    </style>
  </defs>
  <path class="cls-54" d="M943.99,662c23.43,18.56,46.45,37.59,68.58,57.69-1.92,4.42-5.98,4.92-9.99,5.29-4.98.46-9.98.25-14.98.25-238.42,0-476.83,0-715.25,0-9.99,0-19.97.02-29.95.62-16.66-19.47-30.77-40.63-42.21-63.56.37-5.37,4.84-4.74,8.16-5.23,4.94-.73,9.97-.34,14.96-.34,230.09,0,460.19-.03,690.28.09,8.25,0,16.62-1.91,24.79.89l-.12-.05c1.42,2.09,3.97,2.7,5.71,4.37Z"/>
  <path class="cls-63" d="M1962.46,1353.42c12.96,18.49,24.18,38.1,36.24,57.17,6.02,9.52,12.54,18.75,17.39,28.98-6.57,4.51-14.1,3.29-21.31,3.3-110.82.09-221.64.05-332.47.07-36.27,0-72.55-.09-108.82.08-3.34.02-6.64-.14-9.92-.82-7.89-7.64-13.89-16.78-20.19-25.64-12.07-16.96-23.77-34.18-33.6-52.58-1.04-1.21-.48-3.35-2.38-4.05l.22.22c-.18-1.1-.95-1.76-1.74-2.41h0c.7-5.22,5.09-4.52,8.44-5,4.61-.65,9.31-.3,13.97-.3,143.49,0,286.99-.05,430.48.11,7.88,0,15.93-2.33,23.71.87Z"/>
  <path class="cls-71" d="M938.4,657.69c-5.37,2.08-10.94,2.34-16.64,2.34-236.11-.05-472.22-.06-708.33.04-4.42,0-9.4-1.88-13.23,2.21-10.16-15.68-17.93-32.49-23.83-50.19-2.61-5.93.93-7.88,5.8-8.77,5.27-.96,10.63-.58,15.95-.59,217.84-.02,435.68-.02,653.51.02,7.63,0,15.33-.99,22.88,1.02,10.62,6.92,19.8,15.67,29.36,23.87,11.57,9.93,24.18,18.69,34.53,30.03Z"/>
  <path class="cls-62" d="M242.41,725.84c.34-2.21,1.42-3.71,3.83-3.77,3.33-.08,6.65-.11,9.98-.11,246.94,0,493.87,0,740.81-.02,5.27,0,10.71.86,15.54-2.25,15.77,11.44,30.06,24.69,45.05,37.09,4.28,3.54,9.28,6.36,12.48,11.14-2.67,4.19-6.99,4.73-11.36,5.07-4.98.39-9.98.22-14.97.22-244.28,0-488.57,0-732.85.06-7.55,0-15.31-1.18-22.52,2.42-17.43-14.68-32.43-31.6-46-49.84Z"/>
  <path class="cls-29" d="M1256.63,935.55c12.38,14.18,23.09,29.53,31.86,46.2-12.9,3.88-25.24,9.44-39.26,9.43-224.72-.15-449.44-.1-674.16-.1-7.02,0-14.04-.02-20.52-3.22-4.32-2.13-8.47-.56-12.67.25-15.91-11.86-30.96-24.75-45.67-38.05-.6-.83-1.22-1.64-2.2-2.07l.14.14c-.47-.98-1.16-1.72-2.22-2.07l.13.2c-1.24-1.41-2.91-2.59-2.63-4.83,2.91-5.84,8.31-5.99,13.69-5.77,52.91,2.25,105.85.6,158.77.91,41.28.24,82.56.06,123.85.13,43.28.08,86.57.36,129.83-.22,49.88-.67,99.75.86,149.62.23,55.22-.69,110.45.19,165.68.13,8.65,0,17.11-2.31,25.76-1.31Z"/>
  <path class="cls-46" d="M288.4,775.68c.01-2.81.25-5.52,3.98-5.64,3.33-.11,6.66-.09,9.98-.1,250.35,0,500.69,0,751.04.03,5.68,0,11.28-.14,16.69-2.06,17.98,13.96,35.54,28.41,52.24,43.9-3.15,4.19-7.87,4.67-12.52,5.1-5.31.49-10.65.27-15.98.27-243.82,0-487.63,0-731.45.06-6.88,0-14.06-1.26-20.35,3.04-15.65-12.19-31.73-23.86-45.8-37.96-.49-.98-1.13-1.81-2.2-2.22l.14.19c-1.39-2.07-3.97-2.66-5.58-4.45l-.19-.17Z"/>
  <path class="cls-2" d="M703.66,1124.24c-11.5-7.68-21.33-17.39-31.94-26.16-6.05-5-12.68-9.39-17.71-15.58-1.23-2.39-3.9-3.03-5.74-4.69l-.07-.05c-.69-.64-1.31-1.35-2.1-1.88l.05.05c-.58-.82-1.23-1.57-2.18-1.99l.13.12c-.5-.95-1.18-1.69-2.22-2.06l.15.18c-4.66-5.11-.56-7.03,3.38-8.52,3.78-1.43,7.89-1.09,11.88-1.1,217.88-.03,435.75-.03,653.63.03,6.21,0,12.9-1,17.39,5.12,6.62,16.82,11.53,34.09,13.83,52.06-15.27-1.17-30.43,1.33-45.69,1.32-184.48-.12-368.95-.07-553.43-.09-9.32,0-18.66.46-27.92-1.04-4.69-.76-8.55.37-11.44,4.27Z"/>
  <path class="cls-57" d="M1449.8,1299.85c-13.22-18.55-24.36-38.43-36.57-57.63-3.35-5.26-7.3-10.21-9.47-16.17-.17-5.5,3.95-6.37,7.93-7.08,4.27-.76,8.62-.49,12.95-.49,145.69,0,291.38-.02,437.08.03,6.24,0,12.74-1.01,18.37,2.98l-.15-.07c.22,1.03,1.14,1.55,1.69,2.34,15.67,23.48,30.7,47.35,44.76,71.82-2.61,2.01-5.67,1.56-8.64,1.55-147.76-.38-295.53-.04-443.29-.19-8.36,0-16.63.23-24.65,2.9Z"/>
  <path class="cls-74" d="M1543.57,1442.2c1.2-1.87,3.02-2.47,5.12-2.48,3-.01,5.99-.04,8.99-.04,147.21,0,294.42-.03,441.63.11,5.6,0,11.17-1.73,16.77-.22,10.98,15.07,20.08,31.34,29.98,47.09,6,9.56,12.58,18.78,17.49,29-6.34,5.11-13.51,5.44-20.68,2.71-6.99-2.67-14.08-3.56-21.47-3.56-129.67.04-259.35.03-389.02.05-5.26,0-10.73-.69-15.2,3.21-12.96-9.27-24.04-20.65-35.12-31.96-13.63-13.91-27.29-27.86-38.5-43.91Z"/>
  <path class="cls-47" d="M842.09,122.29c-16.03-11.35-30.43-24.7-45.54-37.17-31.28-25.82-62.22-52.06-93.27-78.15-1.64-1.38-4.36-2.02-3.92-5.74,2.95-1.05,6.24-.57,9.43-.57,108.82-.03,217.64-.02,326.46-.02,2,0,4,.08,5.99.01,4.62-.17,6.76,2,6.52,6.62-.09,1.66,0,3.33,0,4.99,0,64.56.03,129.12-.02,193.68,0,3.58.9,7.37-1.49,10.64-5-5.54-2.85-12.27-3.14-18.6-.55-21.61-.03-43.22-.27-64.83-.12-10.64-.95-11.74-11.24-11.67-63.17.38-126.34-1.18-189.5.82Z"/>
  <path class="cls-32" d="M1617.19,1518.08c-.56-1.82-1.11-3.64-1.73-5.65,2.9-1.43,5.9-.73,8.76-.73,133.94-.04,267.89-.02,401.83-.1,6.12,0,11.89.48,17.22,3.82,3.19,2,6.68,3,10.43,1.23,3.15-1.48,6.55-.87,9.85-.98,14.82,22.15,29.02,44.68,42.24,67.81-11.75,4.3-23.41,9.27-36.16,9.29-110.34.16-220.69.06-331.03.13-4.35,0-8.54-1.32-12.88-1.12-13.27-5.34-25.18-13.17-37.22-20.69-19.08-11.91-37.94-24.19-54.76-39.28-.6-.83-1.21-1.65-2.25-1.98l.16.15c-.44-1.07-1.08-1.9-2.35-1.97l.2.22c-.38-1.91-2.61-1.37-3.48-2.63l-.18-.13c-.69-.58-1.38-1.17-2.06-1.76h0c-.6-.78-1.23-1.53-2.17-1.93l.11.1c-.5-.95-1.18-1.71-2.26-2.01l.17.16c-.4-1.11-1.02-1.95-2.32-2.02l-.12.06Z"/>
  <path class="cls-47" d="M1095.84,216.57c-2.22-2.95-1.49-6.39-1.5-9.65-.04-65.23-.04-130.45,0-195.68,0-10.51.08-10.6,10.51-10.6,110.15-.02,220.3-.02,330.46.04,2.49,0,5.28-.92,7.33.88.68,1.96-.43,2.8-1.42,3.63-33.44,27.9-66.86,55.84-100.36,83.66-8.15,6.77-15.61,14.42-24.8,19.91-4.88-1.34-9.87-1.39-14.87-1.38-62.28,0-124.56-.01-186.84.02-14.91,0-15.04.22-15.14,14.97-.12,17.32.29,34.63-.21,51.95.53,10.46.26,20.92.15,31.38-.04,3.88.05,7.94-3.31,10.88Z"/>
  <path class="cls-64" d="M1328.31,1067.72c-3.7-1.79-7.64-1.93-11.68-1.93-221.69.03-443.38.03-665.06.04-2.32,0-4.68-.08-6.96.28-3.84.61-3.44,3.31-2.57,6.07-8.99-5.06-15.99-12.62-23.83-19.12-8.87-7.35-18.09-14.33-26.14-22.64-5.01-6.83-3.6-10.35,4.9-11.08,7.64-.65,15.21,1.37,22.89,1.31,21.97-.17,43.95-.06,65.92-.06,196.44,0,392.88,0,589.32-.01,8.65,0,17.31.37,25.89-1.28,3.26-.63,6.73-1.1,8.89,2.54,7.89,14.59,14.14,29.84,18.42,45.87Z"/>
  <path class="cls-32" d="M237.77,1591.97c-5.32-1.75-8.51-6.19-11.99-10.02-16.02-17.64-30.75-36.26-41.92-57.47-2.15-4.08-4.75-7.95-5.57-12.62-2.08-5.66,2.43-6.02,5.8-6.83,4.22-1.01,8.61-.61,12.93-.61,100.49-.01,200.97.05,301.46-.1,11.69-.02,23.16,2.53,34.84,2.08,4.08-.16,6.89,2,9.11,5.17,8.11,11.58,16.12,23.22,24.35,34.72,6.53,9.12,13.31,18.05,19.98,27.07-3.99,15.63-18.26,15.47-29.86,19.06-4.03,1.25-8.6.37-12.92.37-93.79,0-187.58-.03-281.38.06-8.3,0-16.55-.77-24.83-.89Z"/>
  <path class="cls-33" d="M1449.8,1299.85c.73-4.59,4.3-5.56,8.02-6,2.63-.31,5.31-.12,7.97-.12,148.63,0,297.27,0,445.9-.01,4.98,0,9.99-.29,14.69,1.86,12.78,18.8,24.82,38.07,36.08,57.83-5.74,1.92-11.61,2.36-17.66,2.35-148.86-.08-297.72-.08-446.58.01-4.13,0-8.72-1.67-12.36,1.93-11.56-16.65-22.29-33.83-32.12-51.56-1.03-2.3-2.21-4.51-3.96-6.37l.02.06Z"/>
  <path class="cls-19" d="M703.66,1124.24c-2.91-7.75-2.48-8.73,5.34-8.38,99.51,4.52,199.07,1.16,298.61,1.81,99.29.64,198.58.15,297.87.13,5.63,0,11.16-.22,16.8-1.45,6.74-1.47,13.95-1.75,19.86,3.44,5.16,20.36,7.81,41.03,7.91,62.03-4.22-.09-4.6-3.62-4.92-6.35-.81-7-5.22-8.53-11.19-8.4-2.99.06-5.99-.03-8.99-.03-182.44,0-364.87-.01-547.31.04-7.29,0-14.64-.57-21.87,1.02-15.91-11.93-30.97-24.85-45.61-38.29-.7-.65-1.27-1.45-2.12-1.92l.07.07c-.57-.85-1.24-1.6-2.22-1.99l.15.15c-.48-1-1.11-1.83-2.3-2.02l-.09.15Z"/>
  <path class="cls-72" d="M342.03,820.28c-1.38-3.67-1.65-6.64,3.76-6.37,2.66.13,5.32.01,7.99.01,246.29,0,492.58,0,738.87,0,9.94,0,19.93.64,29.68-2.11,15.79,11.97,30.96,24.69,45.52,38.12-9.48,4.11-19.56,3.19-29.45,3.19-197.67.08-395.35.06-593.02.06-47.59,0-95.18-.04-142.76.05-6.95.01-13.97-.62-20.85,1.08-13.32-9.72-25.75-20.49-37.56-31.98-.5-.97-1.08-1.86-2.2-2.23l.02.19Z"/>
  <path class="cls-23" d="M774.53,519.88c12.66,8.45,23.44,19.19,35.17,28.79,5.84,4.78,12.23,9.02,17.04,14.99-1.88,4.43-5.92,4.98-9.93,5.37-4.97.48-9.98.27-14.97.27-209.3.02-418.61-.03-627.91.06-4.01,0-7.97-.28-11.93-.79-4.29-10.97-6.78-22.35-7.77-34.07-1.6-12.63.22-15.29,12.36-15.51,24.96-.44,49.93-.19,74.9-.15,89.87.15,179.73.08,269.6,0,80.56-.07,161.12-.07,241.69.07,7.23.01,14.62-1.99,21.75.96Z"/>
  <path class="cls-38" d="M1880.08,1221.5c-4.66.09-9.31.25-13.97.25-149.73.01-299.45,0-449.18.07-4.71,0-10.31-1.88-13.18,4.23-9.73-13.71-18.82-27.82-26.2-42.96-1.72-3.52-3.73-7.02-3.69-11.15-2.87-7.49.68-10.52,7.72-11.15,3.65-.33,7.31-.29,10.97-.29,144.4,0,288.8-.02,433.2.03,6.24,0,12.75-1.05,18.32,3.11,12.82,18.78,24.98,37.96,36,57.85Z"/>
  <path class="cls-18" d="M774.53,519.88c-5.42,1.78-10.96,2.22-16.66,2.22-102.49-.08-204.99-.05-307.48-.05H171.53c-1.33,0-2.66,0-3.99,0q-12.74.03-13.3,12.46c-3.99-14.39-6.01-29.05-5.99-43.99-1.34-2.5-.49-5.24-.84-7.84-.85-6.46,2.25-8.83,8.39-9.37,10.97-.97,21.91-.47,32.87-.46,94.16.09,188.31.1,282.47.03,62.22-.05,124.43.12,186.65-.08,16.63-.05,33.23-.2,49.83-1.08,4.41-.23,8.64.02,12.52,2.35,18.72,14.58,36.97,29.7,54.39,45.82Z"/>
  <path class="cls-70" d="M720.14,474.06c-8.13.59-16.3,1.99-24.38,1.58-11.09-.55-22.11,2.37-33.25-.07-4.04-.89-8.54.45-12.82.46-155.51.03-311.02.11-466.53-.17-9.45-.02-18.9,1.03-28.35.21-4.72-.41-6.71,1.75-6.42,6.44.16,2.65-.08,5.32-.13,7.99-2.35-3.61-1.6-7.71-1.7-11.62-.35-12.93-.97-25.87-.13-38.81q2.91-17.17,21.71-17.19c146.51-.02,293.01.02,439.52-.02,14.65,0,29.3-.11,43.94-.29,3.02-.04,6-.13,8.73,1.46,20.69,15.79,40.44,32.69,59.82,50.04Z"/>
  <path class="cls-14" d="M660.32,424.03c-4.79,1.43-9.62,2.12-14.68,2.11-141.99-.08-283.99.17-425.98-.32-20.68-.07-41.35.89-62.04.32-8.43-.23-8.48.07-9.2,8.58-.17,2.02-.18,4-2.01,5.35-.7-21.56,1.41-42.87,5.93-63.95.77-7.1,5.42-9.13,11.76-9.18,4.33-.03,8.66-.09,12.99-.09,131.28,0,262.55-.05,393.83.1,8.41,0,17.43-3.08,25.12,3.2,17.29,14.22,34.67,28.34,51.8,42.75,4.25,3.57,9.35,6.27,12.47,11.12Z"/>
  <path class="cls-60" d="M1309.88,1021.85c-1.28-.31-2.82-1.25-3.79-.83-9.58,4.1-19.65,2.79-29.56,2.79-218.44.05-436.87.04-655.31,0-6.61,0-13.3.79-19.75-1.7-1.47-.57-3.31-.35-4.95-.22-6.51.51-7.23,1.94-4.46,8.53-13.32-9.89-26.02-20.51-37.98-32.01-2.23-2.65-5.01-4.63-7.86-6.53h0c-.63-.74-1.27-1.46-2.13-1.95l.09.08c-.57-.85-1.2-1.64-2.21-2.01,0,0-.09.12-.09.12,6.83-7.85,7.01-7.98,15.19-2.43,2.38,1.61,4.73,2.23,7.45,2.18,2.33-.04,4.66,0,6.99,0,227,0,454,0,681,0,6.23,0,11.96.05,17.76-4.33,4.76-3.6,11.97-2.45,18.23-1.77,8.67,12.55,15.81,25.91,21.39,40.1Z"/>
  <path class="cls-24" d="M452.55,1211.85c1.86,19.95,3.72,39.9,5.58,59.85-5.27-.35-10.48-1.04-15.83-1.03-56.25.17-112.5.12-168.76-.05-51.24-.16-102.49.09-153.73.46-3.31.02-6.65.19-9.91,1-6.79-10.89-8.03-23.58-11.27-35.59-1.43-5.31-3.69-10.71-2.29-16.5-1.84-4.5-.77-9.19-.83-13.79-.16-12.63.48-13.12,13.46-13.48,49.47-1.36,98.95-.02,148.42-.11,59.15-.11,118.3.23,177.45.09,1.66,0,3.33-.02,4.99.06,10.38.49,11.17,1.36,11.47,11.53.07,2.53-1.05,5.35,1.25,7.55Z"/>
  <path class="cls-27" d="M596.05,370.15c-3.19-.42-6.06-1.85-9.67-.65-3.33,1.1-7.23.59-10.87.59-136.74.02-273.48.03-410.23-.04-5.47,0-10.65-.29-12.94,6.08,1.37-18,6.68-35.15,11.42-52.4,1.66-6.03,3.06-12.22,6.33-17.71,5.56-4.23,12.09-3.11,18.32-3.11,101.85-.06,203.71-.09,305.56.04,7.57,0,15.29-1.96,22.76.98,10.91,7.05,20.1,16.23,30.16,24.35,16,12.92,31.63,26.31,47.38,39.53.73.61,1.19,1.55,1.78,2.34Z"/>
  <path class="cls-45" d="M14.41,1035.93c-6.34-16-10.69-32.49-12.07-49.69-.25-.62-.68-1.22-.73-1.85-1.19-16.55-.2-17.75,16.28-17.76,110.2-.09,220.4.02,330.6-.07,4.01,0,7.99.17,11.87,1.27,21.87,14.95,39.2,34.3,54.05,56.02,1.67,2.44,3.79,4.65,4.16,7.79-11.59,2.76-23.11,5.51-35.2,5.5-119.37-.09-238.74-.1-358.11-.04-3.66,0-7.32.09-10.84-1.17Z"/>
  <path class="cls-10" d="M1711.62,304.38c-3.83-12.65-4.88-25.85-7.69-38.71-1.54-7.06-4.24-13.95-4.19-21.33-2.02-2.39.34-5.85-1.99-8.17v.03c2.03-7.38,8.46-6.74,13.73-6.76,35.26-.11,70.52.19,105.77.14,28.25-.04,56.52-.15,84.78-.19,40.93-.05,81.85-.53,122.78-.28,4.05.03,8,.36,11.43,2.83,13.88,15.81,24.61,33.78,35.16,51.83,3.82,6.54,8.47,12.76,10.27,20.36-2.09,1.28-4.43,1.29-6.77,1.31-31.94.3-63.91.75-95.81.53-36.92-.26-73.86-.31-110.79-.56-48.59-.33-97.19.02-145.78-.03-3.67,0-7.33.09-10.89-.99Z"/>
  <path class="cls-28" d="M1256.63,935.55c-5.53,3.47-11.52,4.46-18.06,4.43-41.62-.19-83.25-.07-124.87-.13-5.95,0-11.98.81-17.77-1.57-1.16-.48-2.71-.55-3.94-.25-15.12,3.7-30.47,1.42-45.71,1.75-19.3.41-38.62.15-57.94.07-5.28-.02-10.64.76-15.78-1.45-1.84-.8-3.98-.57-5.86.27-3.82,1.7-7.87,1.39-11.82,1.16-12.49-.71-24.95-.65-37.46-.07-12.57.59-25.19.13-37.79.13h-189.63c-56.88,0-113.77.02-170.65-.03-5.61,0-11.15.18-16.81-1.31-4.66-1.22-9.97-.67-12.25,5.25-.59.84-1.16.79-1.73-.02l-.25-.18c-.73-.48-1.39-1.05-1.96-1.72l-.08-.07c-.7-.62-1.32-1.34-2.11-1.87l.06.05c-.59-.82-1.24-1.56-2.18-2l.13.12c-.51-.94-1.19-1.69-2.24-2.04l.16.2c-1.38-2.12-3.95-2.73-5.66-4.44l-.13-.11c-.7-.59-1.39-1.19-2.05-1.81h0c-.64-.74-1.27-1.48-2.16-1.94l.11.1c-.54-.9-1.22-1.65-2.23-2.03l.16.19c-1.44-2.07-3.97-2.72-5.71-4.39l-.11-.09c-.69-.62-1.38-1.22-2.08-1.83l.03.02c-.61-.78-1.26-1.52-2.17-1.97l.12.11c-.52-.92-1.21-1.66-2.22-2.05l.15.18c-4.99-6.1-4.3-9.12,3.17-10,7.89-.93,15.96-1.22,23.88-.93,33.21,1.23,66.48.76,99.62.38,36.89-.42,73.81.03,110.7-.28,41.23-.34,82.49-.29,123.74.05,42.15.35,84.32.75,126.49.17,34.87-.47,69.81.43,104.66.34,29.21-.08,58.51-.28,87.71.07,25.2.3,50.44-3.51,75.59.41,6.01.94,11.87-2.01,17.86-.41,1.06.49,2.11,1.01,3.15,1.56,9.07,8.38,17.06,17.69,23.94,27.95Z"/>
  <path class="cls-21" d="M542.43,1511.59c-1.74-.92-3.74-2.94-5.19-2.59-11.06,2.6-21.75-1.38-32.64-1.37-104.89.06-209.79.03-314.68.04-2.66,0-5.33.03-7.98.17-2.47.13-3.22,1.97-3.64,4.03-9.21-16.93-14.8-35.06-17.97-54.01-2.21-3.1.52-7.14-1.95-10.19-.53-.36-.59-.78-.18-1.27-2.29-6.1.73-8.68,6.33-9.52,2.97-.45,5.97-.44,8.96-.45,106.75-.09,213.51.12,320.26-.12,4.03,0,8.05-.16,11.1,3.17,6.77,13.62,13.36,27.34,20.36,40.84,5.48,10.56,11.46,20.85,17.22,31.26Z"/>
  <path class="cls-27" d="M1711.62,304.38c2.82-3.5,6.77-2.25,10.26-2.18,20.96.42,41.96.5,62.88.4,24.61-.12,49.26-.2,73.88-.4,33.98-.27,67.97-.1,101.95-.03,5.61.01,11.28-.74,16.79,1.48,4.02,1.62,7.67-1.55,11.69-1.54,28.65.09,57.31.06,85.96.03,2.45,0,4.49,1.08,6.63,2,10.98,20.22,19.45,41.4,24.28,63.96-3.04,1.92-6.43,1.36-9.73,1.35-117.18-.23-234.36-.03-351.54-.09q-15.69,0-21.22,14.92c-.37.99-1.18,1.58-1.87,2.3-3.04-7.2-1.6-14.94-2.64-22.4-2.79-19.88-4.92-39.84-7.32-59.78Z"/>
  <path class="cls-9" d="M237.77,1591.97c.8-2.34,1.72-4.43,4.9-3.23,4.18,1.58,8.56.85,12.84.85,98.69.04,197.37.03,296.06.03,5.92,0,12.12,1.01,16.51-4.54,9.12.71,12.88-7.12,18.67-11.71,8.01,6.1,12.79,15.08,19.8,22.17,6.97,7.05,13.37,14.74,20.53,21.68,1.67,1.61,3.17,3.41,4.61,5.23,10.78,13.65,7.78,27.34-7.55,35.44-3.53,1.87-7.15,1.15-10.72,1.15-90.82.06-181.64.05-272.47.06-3.32,0-6.64.16-9.96.25-2.33-3.72,2.01-8.81-2.48-12.08-18.04-6.56-35.57-14.19-51.85-24.5-11.2-7.09-21.75-15.08-32.26-23.13-1.77-1.35-2.85-3.61-4.25-5.44-.38-1.13-.96-2.07-2.26-2.31l-.14.08Z"/>
  <path class="cls-26" d="M855.54,1252.05c-17.16-13.13-33.62-27.08-49.57-41.64-4.19-4.63-3.12-7.65,2.85-8.99,3.92-.88,7.95-.67,11.94-.61,45.52.69,91.04.97,136.55.68,52.16-.33,104.31-.07,156.47-.38,72.83-.44,145.66-.54,218.49-.29,3.33.01,6.64.16,9.93.79,6.03,1.15,9.47,4.06,8.79,10.87-.78,7.9.89,15.92-.88,23.81.06,8.1.71,16.24-1.85,24.14-6.34-10.22-16.65-9.66-26.53-9.32-36.83,1.24-73.65,1.35-110.49-.04-22.88-.86-45.79.82-68.69,1.05-16.29.16-32.6,1.36-48.86-.1-9.03-.81-17.9,1.07-26.9.78-40.88-1.33-81.78.38-122.69-.83-29.47-.88-59.03-.14-88.55.11Z"/>
  <path class="cls-38" d="M1350.11,1236.29c-.06-7.65-.47-15.32-.07-22.95.29-5.51-2.33-7.93-7.08-8.84-2.58-.5-5.26-.69-7.9-.69-54.19-.04-108.38-.44-162.56.31-11.05.15-22.42-2.75-33.35,1.38-5.88-3.36-12.3.57-18.42-1.42-3.02-.98-6.69-.73-9.91-.16-9.08,1.62-18.08.57-27.13-.05-3.31-.23-6.72-.44-9.97.09-8.41,1.36-16.74.76-25.14,0-3.95-.35-8.11-.63-11.93.19-7.47,1.6-14.81-.03-22.2-.06-4.63-.02-9.39-.9-13.9.06-7.47,1.59-14.8-.23-22.19,0-4.64.15-9.45-.87-13.89.06-7.51,1.57-14.81-.29-22.2-.09-4.31.12-9-1.24-12.86.04-7.24,2.4-14.21-.41-21.36.19-6.08.51-12.5.47-18.61.26-7.73-.28-15.36,2.18-23.31-.17-5.53-1.64-11.88-.61-17.86-.64-12.65-.05-25.3.15-37.94-.09-5.65-.11-6.07,2.42-4.39,6.71-13.3-9.9-25.92-20.6-38-31.95-1.21-2.38-3.9-2.98-5.64-4.72l-.14-.11c-.69-.59-1.38-1.19-2.06-1.8h0c-.62-.75-1.26-1.49-2.16-1.94l.1.1c-.54-.9-1.17-1.7-2.24-2.01,0,0-.06.12-.06.13.62-2.47,1.89-4.23,4.72-4.25,2.66-.02,5.33-.06,7.99-.06,188.76,0,377.52,0,566.28,0,1.33,0,2.66-.02,3.99,0,8.88.15,8.82.15,9.21,8.72.14,3.19-1.11,6.77,2.08,9.3,2.29,18.16,2.63,36.31.06,54.47Z"/>
  <path class="cls-40" d="M2036.23,231.94c-8.33.07-16.65.18-24.98.21-11.33.04-22.71-.68-33.96.21-10.91.86-21.71-.68-32.52-.1-11.86.64-23.68.07-35.52-.01-12.17-.08-24.33.28-36.51.16-11.83-.12-23.67-.13-35.51-.14-12.17-.02-24.34.13-36.51.1-20.16-.05-40.33-.34-60.5-.27-9.5.03-18.94,1.98-28.54.21-4.93-.91-9.86.56-13.94,3.9-3.91-13.01-7.83-26.01-11.72-39.03-2.09-6.99-4.14-14-6.22-21-1.82-1.59-.06-4.44-2.08-5.97l.03.06c-1.7-1.66.03-4.53-2.14-6.02l.05.1c-1.98-4.87,1.7-5.71,4.89-6.58,3.55-.97,7.25-.74,10.91-.74,73.73,0,147.47-.42,221.19.41,14.92.17,29.84-1.59,44.75,0,4.29.46,8.65.45,12.56,2.64,25.31,20.98,47.18,45.14,66.26,71.87Z"/>
  <path class="cls-9" d="M1725.73,1591.78c3.19-3.65,7.48-2.08,11.26-2.09,81.78-.09,163.56-.07,245.35-.07,29.59,0,59.18-.07,88.76.06,5.44.02,10.62-.37,15.26-3.44,6.05-3.99,12.92-2.13,19.44-2.77,0,0-.03-.01-.03-.01.97,1.24.61,3.33,2.55,3.94,15.18,22.27,28.83,45.51,43.03,68.39.29.46.04,1.25.04,2.04-2.17,2.2-4.99,1.19-7.47,1.2-51.63.07-103.26.62-154.88-.09-90.66-1.24-176.59-22.35-257.49-63.48-2.04-1.04-3.89-2.45-5.83-3.69Z"/>
  <path class="cls-25" d="M14.41,1035.93c3.25-3.56,7.52-2.02,11.33-2.02,83.63-.09,167.27-.07,250.9-.07,37.65,0,75.3,0,112.96,0,4.31,0,8.65.38,12.65-1.94,5.35-3.11,10.84-2.53,16.32-.26,0,0-.08-.02-.08-.02,1.09,2.22,2.25,4.38,4.03,6.14,11.28,17.64,18.2,37.09,23.48,57.18.74,2.8.31,5.9.42,8.86-1.95.26-3.41-.73-3.87-2.39-2.73-9.95-10.25-10.46-18.76-10.45-120.45.11-240.89.07-361.34.09-6.31,0-12.66-.1-18.44,3.11-9.02-11.22-15.61-23.88-21.26-37-3-6.97-6.83-13.66-8.35-21.23Z"/>
  <path class="cls-17" d="M452.55,1211.85c-3.64-2.75-2.14-6.73-2.23-10.2-.11-4.24-1.87-5.94-6.07-5.9-11.59.11-23.18.02-34.78.02-35.22,0-70.46.51-105.66-.27-12.86-.28-25.66.21-38.48.38-26.74.35-53.5-1.87-80.21.02-8.35.59-16.13-2.61-24.62-1.59-18.69,2.25-37.58,1.33-56.39,1.49-7.37.07-7.48.33-7.66,8.19-.12,5.32-.08,10.65-.11,15.97-.39-.53-1.06-1.04-1.12-1.61-1.69-15.83-.94-31.7-.39-47.54.2-5.68,5.88-8.42,10.39-11.94-4.81-7.45-14.15-9.7-18.87-16.92-5.11-6.29-4.5-8.97,2.61-10.73,3.58-.88,7.28-.7,10.95-.7,110.91-.02,221.83-.02,332.74,0,2,0,4,.12,5.99.09,7.8-.1,10.89,3.05,10.86,11.45-.06,15.19-1.85,30.48,1.02,45.61,3.07,7.84.35,16.17,2.03,24.13Z"/>
  <path class="cls-41" d="M2117.69,432.09c1.27,4.17,1.71,8.44,1.85,12.79.6,19.29.66,38.58-.07,57.87-.12,3.27.38,6.71-1.65,9.67-5.27-6-3.12-13.32-3.31-20.11-.4-14.58-.54-15.01-15.35-15.01-113.58-.03-227.17.03-340.75-.09-10.88-.01-21.91.64-32.57-2.61-2.25-16.53-.72-33.14-.83-49.7-.05-6.64,5.71-7.6,10.81-7.75,15.29-.46,30.6-1.01,45.88-.96,48.21.17,96.42-.08,144.62.19,59.55.33,119.11.17,178.67.33,12.15.03,11.55,7.75,12.71,15.38Z"/>
  <path class="cls-65" d="M2117.69,432.09c-.45-.48-1.16-.9-1.3-1.46q-2.6-10.54-13.91-10.55c-51.26,0-102.53.32-153.79-.2-15.17-.15-30.32.24-45.47.2-15.31-.04-30.63-.05-45.94,0-10.5.04-20.95-.93-31.5-.18-10.6.76-21.32.66-31.94.06-18.51-1.05-36.97.66-55.47.18-12.31-.32-12.55.16-12.56,11.98-.02,13.98.04,27.96.06,41.94,5.44,11,2.11,22.6,2.35,33.97-.22,1.14-.64,2.21-1.24,3.2-.75,1.08-1.74,1.35-2.94.8-.06-21.26.15-42.53-.26-63.79-.4-20.58-1.43-41.14-2.19-61.7.07-3.99.05-7.99.25-11.98.28-5.67,2.03-7.6,7.67-8.34,2.3-.3,4.66-.13,6.99-.13,118.93,0,237.86,0,356.79-.02,4.34,0,8.68-.21,12.65,1.99,6.81,20.81,10.84,42.12,11.76,64.01Z"/>
  <path class="cls-52" d="M855.54,1252.05c4.92-2.83,9.75-3.77,15.82-3.21,8.68.79,17.6,2.21,26.51-.49,5.33-1.61,11.29-1.26,16.82,0,8.91,2.02,17.69,2.23,26.55,0,1.27-.32,2.74-.67,3.92-.33,12.11,3.44,24.5.72,36.69,1.81,14.17,1.27,28.19-1.69,42.45-.41,14.19,1.28,28.59.41,42.9.29,6.27-.05,12.61.9,18.75-1.52,3.7-1.46,7.03,1.68,10.69,1.51,16.49-.78,33.09,1.57,49.5-1.61,2.02-.39,3.95-.11,5.85.66,3.58,1.45,7.09,1.11,10.69-.15,1.83-.64,4.02-1.12,5.86-.74,13.51,2.82,27.11-2.31,40.39.13,12.71,2.34,25.41-.82,38.06,1.54,5.05.94,10.47.58,15.79-.94,6.97-1.98,14.12,1.37,21.28.28,1.86-.28,4.11,1.27,5.81.75,9.64-2.95,19.49,1.11,29.26-1.52,8.49-2.29,17.01,1.78,25.61,1.97,1.89.04,2.84,1.57,3.02,3.38.23,2.32.33,4.64.49,6.97-.19,13.61-2.27,26.94-5.98,40.02-5.79-2.92-11.96-3.53-18.37-3.53-129.42.06-258.84.04-388.26.06-6.98,0-14.33-.71-17.74,7.64-14.46-11.06-28.45-22.68-41.75-35.11-.71-.52-1.38-1.1-1.99-1.73l-.05-.04c-.66-.69-1.28-1.42-2.14-1.89l.08.07c-.55-.88-1.22-1.62-2.22-2l.15.15c-.45-1.03-1.12-1.81-2.29-2.04l.18.21c-1.25-2.29-3.89-2.85-5.66-4.49l-.09-.07c-.69-.63-1.3-1.35-2.1-1.85l.05.04c-.58-.83-1.22-1.58-2.18-1.98l.13.12c-.53-.94-1.09-1.84-2.28-2.01l-.19.06Z"/>
  <path class="cls-25" d="M1379.77,1089.79c3.07-9.39,9.11-16.94,15.51-24.12,9.55-10.71,20.66-19.7,32.34-28.01,19.91-.28,39.53-4.79,59.37-4.87,80.73-.35,161.47-.05,242.2-.27,10.82-.03,21.04,2.6,31.45,4.56,3.07.58,5.5,2.23,7.43,4.66,10.86,15.46,20.79,31.51,29.96,48.03-13.09,2.14-26.34,3.14-39.53,3.16-115.72.22-231.44.15-347.16.08-10.61,0-21.19-.79-31.57-3.22Z"/>
  <path class="cls-44" d="M1985.85,772.24c-17.66,18.71-37.8,34.53-58.41,49.77-8.8,6.51-17.41,13.35-27.36,18.13-8.58,1-17.2,1.04-25.83,1.05-75.03.03-150.05-.16-225.08.07-3.29.01-6.67.57-9.68-1.41,1.77-5.11,5.37-9.13,8.14-13.65,9.43-15.37,16.91-31.67,23.42-48.45,1.31-3.38,2.95-6.63,4.43-9.94,8.29-2.99,17-2.81,25.57-2.89,33.24-.33,66.54-.96,99.69.37,31.2,1.24,62.34-.54,93.54.51,25.73.87,51.81-.72,77.73-.78,5.37-.01,12.76-1.86,13.83,7.23Z"/>
  <path class="cls-51" d="M917.9,1304.61c-2.31-9.63-1.62-10.65,7.68-10.85,4.99-.11,9.98-.02,14.97-.02,129.1,0,258.21,0,387.31,0,2.66,0,5.34.19,7.98-.03,5.05-.42,6.27,2.6,6.43,6.73-2.1,16.32-6.1,32.15-12.2,47.44-3.87-1.33-7.88-1-11.85-1-111.67.16-223.34,0-335.02.13-5.34,0-10.56-1.02-15.87-.94-17.21-12.94-33.48-27.01-49.43-41.46Z"/>
  <path class="cls-8" d="M1703.66,673.88c3.35-17.29,6.7-34.57,10.05-51.86,3.26-5.32,8.56-5.83,13.98-5.75,26.18.38,52.42-1.21,78.52-.33,36.23,1.22,72.42,1.18,108.61.56,39.11-.68,78.22,1.19,117.36-1.02,16.78-.95,33.78,1.66,50.71,1.93,3.45.05,8.8.17,6.78,6.69-7.36,19.02-16.58,37.06-27.98,53.98-58.47-1.86-116.96-.52-175.44-.78-55.5-.25-111,0-166.5-.12-5.51-.01-11.43,1.18-16.1-3.3Z"/>
  <path class="cls-73" d="M516.73,303.92c-4.21.79-8.19,2.29-12.65,2.29-111.33-.15-222.66-.16-333.99-.2,2.89-13.66,9.32-26,14.85-38.63,3.81-8.7,7.6-17.5,13.26-25.28,3.53-5.22,9.01-4.94,14.33-5.04,26.53-.47,53.07-.21,79.6-.1,51.13.23,102.27-.04,153.4-.02,3.9,0,8.12-.92,10.85,3.17,6.65,8.25,11.72,17.61,18.49,25.83,9.6,11.66,22.34,19.67,33.19,29.85,2.89,2.71,6.35,4.79,8.67,8.12Z"/>
  <path class="cls-12" d="M504.85,1439.49c-5.94-1.29-11.85.3-17.79.29-104.85-.14-209.71-.1-314.56-.1-2.66,0-5.34.18-7.99-.03-5.05-.4-6.31,2.52-6.32,6.74-3.91-15.4-2.14-31.1-1.84-46.64.2-10.63,7.86-17.3,18.8-18.42,3.01-.31,5.93-.52,8.65-1.9,6.83-2.52,13.88-.86,20.8-.87,80.26-.12,160.52-.04,240.78-.14,10.01-.01,19.95.89,29.92,1.13,4.57.11,7.61,1.74,9.07,6.1,6.82,17.94,13.64,35.88,20.47,53.83Z"/>
  <path class="cls-66" d="M1969.97,160.07c-5.19,1.05-10.36.54-15.61.36-8.89-.29-17.91-1.45-26.77,1.32-4.6,1.44-8.9-2.29-13.7-1.62-8.18,1.14-16.41.14-24.63.13-67.63-.13-135.26-.11-202.89.03-3.79,0-9.13-2.48-10.71,4.05-4.76-6.19-6.1-13.91-9.1-20.87-7.51-17.4-16.42-34.09-24.91-50.99,1.63-8.52,8.74-7.14,14.19-7.04,23.9.42,47.79-.24,71.68-.19,37.19.07,74.39-.7,111.58.47,7.66.24,15.15-1.82,22.81-1.59,8.34,2.69,15.26,8.02,22.62,12.45,27.69,16.66,53.91,35.41,78.51,56.4,2.51,2.14,4.63,4.73,6.93,7.1Z"/>
  <path class="cls-31" d="M109.91,1272.08c1.15-5.01,5.14-4.33,8.76-4.33,15.98-.01,31.96,0,47.94,0,23.31,0,46.63.6,69.91-.26,11.43-.42,23.08-1.14,34.29-.56,28.61,1.48,57.18.33,85.75.73,27.63.39,55.27.1,82.9.07,2.99,0,6.41.65,8.87-.55,5.64-2.76,7.64.65,9.79,4.51,2.71,15.25,5.18,30.56,8.25,45.74,1.37,6.75,4.06,13.23,4.1,20.27-4.8.38-7.65-3.64-11.26-5.57-12.55-6.7-25.73-7.47-39.52-7.43-84.09.24-168.19.28-252.28-.08-10.49-.04-18.17,1.8-20.98,12.94-7.25-6.09-11.54-14.41-16.35-22.25-6.92-11.29-13.1-23.01-17.7-35.48-2.27-2.19.74-6.01-2.44-7.93l-.03.18Z"/>
  <path class="cls-22" d="M146.44,1337.56c-1.19-3.82-1.03-7.11.65-11.18,1.5-3.63,3.11-4.55,6.28-4.63,2.33-.06,4.65-.02,6.98-.02,91.77,0,183.54,0,275.31-.02,6.32,0,12.6-.57,17.4,5.11,1.33,1.57,4.31,2.9,6.25,2.58,6.94-1.14,8.7,3.9,11.18,8.3,4.54,10.88,6.32,22.58,10.03,33.71,1.55,4.66,2.59,9.5,3.87,14.26-2.35-1.45-3.77-5.11-7.52-3.22-3.23,1.63-6.34,1.2-9.61-.04-3.5-1.32-7.24-.68-10.87-.68-86.02-.03-172.03-.02-258.05-.03-4.95,0-10.02.63-14.52-2.26-4.61-7.81-12.58-12.41-18.33-19.17-2.99-3.51-6.78-6.34-9.16-10.41-1.81-2.89-3.72-5.7-6.42-7.87l.22.19c-.19-1.15-1.01-1.8-1.91-2.37l.09.1c-.44-.85-1.16-1.48-1.74-2.21l-.13-.14Z"/>
  <path class="cls-13" d="M381.77,854.3c.79-2.94,2.56-4.48,5.74-4.38,2.99.1,5.99,0,8.99,0,248.64,0,497.28,0,745.93-.05,5.6,0,11.31.97,16.77-1.37,3.1-1.33,5.69,1.47,8.67,1.44,8.8,7.29,17.59,14.59,26.39,21.88-5.75,3.9-12.38,4.94-19.02,4.96-15.97.04-31.97,1.21-47.88-1.37-9.36-1.52-18.52,1.61-27.86,1.6-22.65-.02-45.28-.08-67.88-1.84-11.35-.88-22.49,2.58-33.87,1.8-35.82-2.45-71.7-.51-107.54-.81-25.84-.21-51.79.24-77.65.27-26.86.04-53.77.13-80.65-.21-14.52-.18-29.16-.8-43.78.17-14.23.94-28.54.04-42.82.17-18.9.18-37.82.29-56.71.07-37.61-.45-75.2.45-112.8.34-21.86-.06-43.87-3.09-65.68,1.09-5.92-3.74-11.28-8.14-15.99-13.32-.39-1.94-2.6-1.66-3.55-2.92l-.21-.16c-.73-.51-1.4-1.1-2.02-1.74l-.04-.03c-.67-.68-1.3-1.41-2.14-1.9l.08.08c-.56-.85-1.24-1.58-2.19-2.02l.14.14c-.49-.96-1.13-1.77-2.25-2.04l-.17.17Z"/>
  <path class="cls-40" d="M456.38,240.13c-4.91-1.92-9.81.18-14.73.16-51.87-.21-103.75.36-155.61-.4-17.79-.26-35.68,2.45-53.41-1.04-11.25,3.47-23.29-1.28-34.44,3.27.25-.96.3-2.01.77-2.85,16.96-30.79,36.78-59.56,60.64-85.46.66-.71,1.56-1.2,2.34-1.79,2.47-1.16,5.08-1.48,7.78-1.43,50.28.87,100.56.12,150.83.4,1.33,0,2.66.1,3.99.08,7.68-.09,11.55,2.74,10.91,11.34-.49,6.5-1.38,13.26.79,19.76,3.21,13.88,5.78,27.95,12.03,40.94,2.72,5.66,5.4,11.35,8.09,17.03Z"/>
  <path class="cls-53" d="M2089.68,624.09c-.4-3.44-2.71-4.12-5.69-4.09-5.99.06-11.97.11-17.96-.02-7.93-.17-15.8.31-23.75-1.58-5.3-1.26-11.21-1.15-16.77.62-1.86.59-3.97,1.17-5.84.88-13.83-2.14-27.62,1.3-41.45.16-5.59-.46-11.25.42-16.76-1.62-2.07-.77-4.7-.77-6.91-.31-14.48,2.96-29.06.86-43.57,1.32-29.25.92-58.48.08-87.72.54-4.29.07-8.6.37-12.78-1.37-2.48-1.03-5.27-.88-7.83.09-5.18,1.95-10.6,2.07-15.67.56-3.95-1.17-7.19,1.46-10.72.69-14.15-3.07-28.29,1.55-42.38-.05-7-.79-13.73-1.23-20.19,2.12,1.36-15.41,3.27-30.75,6.02-45.98,2.52-7.61,8.79-7.65,15.29-8.02,25.84-1.48,51.62,1.42,77.54.36,18.08-.74,36.56.69,54.66-.12,24.57-1.1,49.01,2.24,73.59-.03,15.45-1.43,31.14-.04,46.71.19,12.94.19,25.92-.78,38.78-.28,24.9.96,49.81.29,74.69,1.39,1.67.07,3.2.83,4.57,1.85,1.51,2.28,1.37,4.6.2,6.96-3.13,16.04-8.7,31.21-16.08,45.75Z"/>
  <path class="cls-16" d="M450.53,1187.72c-3.4-2.42-2.15-6.05-2.19-9.21-.14-10.99-.04-21.98-.06-32.98q-.02-11.71-12.19-11.73c-9.99-.01-19.99,0-29.98,0-102.93,0-205.86,0-308.8,0-2.33,0-4.67-.09-6.99.02-7.4.37-7.6.82-3.97,8.17-6.98-2.35-10.19-9.03-15.13-13.64-8.85-8.24-16.88-17.4-22.94-28.04-.37-1.02-1.06-1.81-1.91-2.46l.02.03c-1.12-1.1-.59-3.2-2.36-3.9,0,0-.02.18-.02.18.23-4.33,2.01-6.89,6.85-6.36,1.97.22,3.99.03,5.99.03,124.25,0,248.5,0,372.75,0,.67,0,1.33,0,2,0,10.71.05,10.76.04,12.62,10.74.34,1.98.2,4.02,2.2,5.24,2.53,8.19,3.99,16.62,4.11,25.13.26,19.59.03,39.19,0,58.78Z"/>
  <path class="cls-19" d="M1844.08,1163.65c-31.3.05-62.59.13-93.89.13-120.53.02-241.06,0-361.58,0-2.33,0-4.66-.06-6.99.01-6.77.21-6.77.23-7.75,8.14-2.13-2.12-2.19-4.83-2.14-7.57-1.67-2.64.36-6.06-1.82-8.59-.43-.45-.48-.94-.15-1.47-1.33-10.24-1.3-20.49-.01-30.74h-.17c2.51-1.91,5.39-2.35,8.47-2.3,119.22,2.08,238.46-.37,357.68.87,25.58.27,51.15,1.51,76.73.22,3.41-.17,5.61,1.45,7.98,3.23,8.62,12.22,16.67,24.8,23.65,38.05Z"/>
  <path class="cls-43" d="M1229.98,907.89c-18.41,3.5-36.83-1.37-55.25-.01-4.61.34-9.25-.37-13.83,1.27-2.41.86-5.59,1.43-7.83.58-9.68-3.69-19.86-1.51-29.23-.85-17.04,1.2-33.81-1.81-50.92-.34-13.76,1.18-28.03,1.72-42.26-.22-11.47-1.56-23.48,1.46-35.18.91-6.19-.29-12.47-1.6-18.75-1.28-13.08.66-26.33,1.72-39.22,1.04-12.3-.65-24.74,3.17-36.87-.97-10.78,3.55-21.53-.81-32.3-.15-3.63.22-7.25-.09-10.85,1.17-4.16,1.45-8.5,1.18-12.78.09-1.92-.49-3.89-1.21-5.82-1.15-18.5.57-37.04-1.1-55.46.2-12.81.9-25.59-.08-38.43.7-16.52,1.01-33.47-1.72-50.18-.71-10.45.63-20.98.69-31.32.64-20.69-.1-41.4-.72-62.11-.88-4.95-.04-9.92-.45-14.8,1.41-2.02.77-4.66.52-6.87.04-10.87-2.35-21.7-2.3-32.54-.04-2.36.49-4.62.58-6.83-.4-2.85-1.26-5.91-1.34-8.85-.98-12.39,1.54-24.94-1.11-37.27,1.52-2.1.45-3.85-.83-5.78-1.18-9.45-1.72-18.87,2.52-28.43.14-1.8-.45-4.17,1.41-6.49,2.29.94,2.01,1.76,3.76,2.58,5.52-4.98-2.05-8.5-5.88-12-9.74-1.29-2.28-3.93-2.91-5.66-4.66l-.14-.11c-.7-.58-1.39-1.18-2.06-1.8h0c-.64-.73-1.27-1.47-2.16-1.94l.1.1c-.54-.89-1.22-1.63-2.22-2.03l.15.15c-.44-1.02-1.13-1.79-2.26-2.06l.19.21c-.55-1.75-2.7-1.25-3.58-2.54l-.13-.1c-.81-1.08-.99-2.26-.52-3.53,2.74-4.21,7.12-4.58,11.47-4.69,41.59-1.04,83.17-.92,124.77-.07,19.59.4,39.22-.12,58.83-.28,48.91-.38,97.82-.17,146.72-.22,67.55-.06,135.1-.41,202.64-.04,73.85.4,147.69-.55,221.53-.12,6.34.04,12.67-.16,18.56,2.76l-.15-.07c6.36,7.67,16.19,12.29,19.76,22.42Z"/>
  <path class="cls-59" d="M1985.85,772.24c-1.57-3.64-4.6-4.33-8.19-4.32-22.64.06-45.33-.82-67.9.42-10.27.56-20.2.92-30.5-.09-12.75-1.25-25.87-1.62-38.54-.02-22.27,2.82-44.3-2.1-66.45-.33-11.8.95-23.6.89-35.45.19-11.94-.71-23.96-.24-35.95-.12-5.61.05-11.29-.78-16.77,1.5-3.75,1.56-7.03-1.46-10.64-1.67,4.8-16.17,10.07-32.18,15.99-47.97,7.75-4.75,16.55-4.97,25.11-4.99,99.81-.23,199.63-.22,299.44.03,5.82.01,13.21-1.59,15.57,6.98l-.05.08c-.61.71-1.28,1.37-1.81,2.14l.06-.07c-.9.63-1.59,1.42-1.96,2.48-12.1,16.99-26.36,31.99-41.98,45.76Z"/>
  <path class="cls-67" d="M2031.59,721.86c-3.43-4.07-8.12-3.92-12.82-3.91-16.98.04-33.95.02-50.93.02-82.56,0-165.11.11-247.67-.14-9.68-.03-19.01,3.32-28.7,2.02,2.58-12.84,6.14-25.42,10.26-37.84,2.34-2.3.02-5.75,1.98-8.14,0,0-.05.02-.05.02,114.91.03,229.82.05,344.74.17,4.68,0,10.3-2.01,13.3,4.02-8.33,15.77-18.54,30.25-30.11,43.79Z"/>
  <path class="cls-18" d="M1725.8,512.04c.02-12.65.04-25.31.07-37.96,9.16-2.35,18.33.03,27.49.02,117.25-.06,234.5-.04,351.75-.04,13.21,0,12.54-.87,12.55,12.39,0,8.66.1,17.32.16,25.98-.21,6.01.7,12.16-2.06,17.88-.24-.23-.57-.42-.7-.71-6.08-13.71-9.33-15.44-25.41-13.77-17.89,1.86-35.81-.22-53.67.3-19.24.57-38.43-.87-57.66.09-19.52.97-39.08-.04-58.64.25-21.49.32-42.99-.3-64.5.12-29.23.56-58.49.83-87.71-.05-8.01-.24-15.93.94-23.9.44-6.25-.39-12.75-.02-17.76-4.93Z"/>
  <path class="cls-16" d="M1820.43,1125.6c-4.24-2.47-8.39.23-12.6.22-19.29-.05-38.67,1.08-57.85-.38-15.13-1.15-30.26-.72-45.3-.85-13.67-.12-27.55.09-41.29.39-9.78.21-19.93-.35-29.76-.3-9.85.05-19.9.05-29.79.25-9.81.2-19.92-.28-29.76-.24-9.86.04-19.93.28-29.77.2-9.87-.08-19.9-.03-29.79-.17-9.85-.14-19.84-.42-29.79.3-9.86.72-19.84-.22-29.77-.61-4.85-.19-9.77.25-14.48.56-11.61.78-23.06,1.77-34.56-.74-1.55-.34-3.38-.27-4.89.21-6.23,2-12.27,1.63-18.59,0-4.1-1.06-8.58-.62-12.89-.86.47-12.15,4.02-23.37,10.19-33.8,4.31-2.41,9.16-2.88,13.57-1.55,6.26,1.89,12.5,1.56,18.78,1.56,115.52.03,231.04-.07,346.56.18,9.7.02,19.01-2.95,28.71-2.25,3.68.27,7.29.34,10.65,2.04,8.29,11.43,15.7,23.41,22.39,35.84Z"/>
  <path class="cls-1" d="M967.33,1346.07c3.56-3.66,8.14-2.3,12.32-2.3,110.9-.07,221.8-.05,332.69-.08,4.3,0,8.69.72,12.9-.71,5.14-1.75,4.42,2.09,4.83,4.9,0,0,.03-.12.03-.12-2.16,1.6-.41,4.47-2.04,6.25-3.58,14.06-8.92,27.42-15.91,40.13-7.93-1.04-15.89-1.26-23.89-1.25-80.83.04-161.66.05-242.5,0-7.36,0-14.63.28-21.66,2.68-12.82-13.8-28.94-23.86-42.23-37.12-1.16-2.43-3.88-3.02-5.63-4.76l-.14-.11c-.69-.6-1.38-1.2-2.08-1.8h.01c-.6-.77-1.24-1.52-2.17-1.94l.11.11c-.51-.94-1.19-1.7-2.26-2.01l.17.16c-.42-1.07-.98-1.99-2.3-2.04l-.26.02Z"/>
  <path class="cls-55" d="M874.51,603.79c-4.52,2.92-9.6,2.21-14.55,2.21-223.29.01-446.58,0-669.87.01-2.99,0-5.99.07-8.98.04-4.24-.04-4.71,2.81-4.74,6.04-3.91-7.38-6.98-15.06-8.23-23.38-1.9-5.23,1.73-6.43,5.49-7.29,4.25-.98,8.62-.68,12.94-.68,215.12-.01,430.23,0,645.35-.02,6.35,0,12.69-.14,18.49,3.08l-.13-.08c1.48,1.99,3.99,2.65,5.68,4.37l.16.12c.71.57,1.41,1.17,2.08,1.79,5.83,4.14,11.73,8.2,16.33,13.8Z"/>
  <path class="cls-6" d="M1768.08,1041.74c-12.37-1.73-24.23-6.04-37.01-6.01-81.51.22-163.02.15-244.53.05-8.36-.01-16.39,1.29-24.59,2.78-11.34,2.06-23,3.11-34.33-.9,13.88-13.44,29.28-25.1,44.04-37.51,8.38-7.04,16.26-14.75,25.57-20.65,16.13-.48,32.45-3.65,47.94,4.14,3.25,1.63,7.18,1.13,10.84,1.11,46.51-.24,93.02.15,139.53.05,6.73-.01,13.08-.77,19.32-3.76,5.98-2.87,12.26-3.41,17.1,2.76,12.89,18.78,25,38.05,36.11,57.94Z"/>
  <path class="cls-23" d="M2105.64,572.02c-18.32,0-36.64.03-54.95-.02-4.96-.01-9.99.57-14.78-1.52-1.16-.5-2.76-.74-3.92-.36-9.66,3.13-19.62.64-29.4,1.65-4.93.51-10.05.53-14.92-.27-3.34-.54-6.25-1.17-9.64-.03-3.46,1.16-7.36,1.14-10.84-.03-3.66-1.23-7.02-1.69-10.63-.06-1.16.52-2.72.85-3.89.53-11.52-3.12-22.96,1.47-34.48.2-5.57-.62-11.19.07-16.79-1.61-4.06-1.22-8.6-.98-12.84.25-8.19,2.36-16.51.85-24.78,1.03-9.06.19-18.11-1.62-27.18.04-2.26.41-4.67.41-6.97.17-16.82-1.74-33.63.78-50.45.06-4.3-.19-8.54.02-12.81-1.39-4.11-1.36-8.72-1.3-12.84-.12-6.28,1.81-12.24,1.55-18.62.34-5.55-1.05-11.07.63-15.17,5.16-.1-7.4-.1-14.79,2.01-21.99,2.14-3.74,1.37-7.91.92-11.69-1.02-8.58,3.05-11.29,10.79-11.37,19.95-.2,39.93-.7,59.84-.2,50.5,1.27,100.99-.29,151.48.11,49.84.39,99.68.38,149.53.03,3.66-.03,7.31-.01,10.97.16,7.45.35,11.41,3.26,8.51,11.35.23.56.18,1.1-.16,1.6-2.1,2.53-.1,5.92-1.78,8.54.24.5.2.98-.14,1.42-2.28,2.44-.08,5.9-1.9,8.44.21.57.13,1.1-.22,1.6-1.74,1.85-.38,4.53-1.75,6.48.2.54.13,1.04-.23,1.49-.65.98-1.3.98-1.95,0Z"/>
  <path class="cls-47" d="M1861.91,84.11c-7.28,6.05-16.21,4.43-24.52,4.68-3.83.12-7.89-.55-11.85-.55-35.87-.05-71.74-.44-107.59.23-10.42.19-21,.49-31.35.48-10.69,0-21.59.87-32.35-.65-4.66-.66-9.35-.08-12.59,4.17-11.16-15.67-21.36-32-34.3-46.43-16.2-18.07-34.56-32.97-56.87-42.78-.88-.39-1.67-1-3.05-1.83,2.41-2.07,5.03-1.29,7.33-1.27,54.46.49,107.71,9.22,160.12,23.6,42.1,11.55,82.68,27.13,121.86,46.34,8.61,4.22,17.31,8.4,25.17,14.01Z"/>
  <path class="cls-15" d="M360.36,967.83c-4.23,2.7-8.98,2.03-13.61,2.03-109.25.01-218.51.01-327.76.01q-16.28,0-16.66,16.37c-4.08-14.02-1.44-28.38-2.04-42.57-.1-2.3.21-4.63.12-6.93-.43-10.58-.45-10.63,9.71-10.63,79.79-.02,159.59-.02,239.38,0,9.66,0,19.04,2.19,28.42,4.17,29.28,6.18,55.87,18.55,80.5,35.35.78.53,1.29,1.45,1.93,2.19Z"/>
  <path class="cls-69" d="M1242,1503.64c-16.82,21.27-37.08,39.01-58.1,55.87-15.03,12.06-30.38,23.74-47.64,32.58-21.83,1.06-43.67.3-65.5.44-7.12.05-12.14-2.85-14.42-9.75-1.89-5.74-7.22-9.54-8.59-15.54,6.31-15.41,11.22-31.24,14.36-47.61,1.96-5.49,1.2-11.22.81-16.73-.55-7.65,3.11-10.16,9.84-10.33,1.99-.05,3.98-.14,5.98-.14,50.15-.02,100.3-.03,150.45.01,3.65,0,7.33-.13,10.88.97,4.15,1.28,6.44,3.54,3.86,8.08l-.13.16c-.56.7-1.15,1.37-1.79,2.01Z"/>
  <path class="cls-12" d="M1024.1,1395.55c.28-3.49,2.1-5.54,5.66-5.75,2.33-.14,4.66-.1,6.99-.1,87.96,0,175.93,0,263.89,0,2.33,0,4.66.03,7,.06,2.87.04,4.09,1.79,4.5,4.37-6.78,17.54-15.57,34.02-26.16,49.56-5.25-1.1-10.59-.77-15.89-.77-66.17-.08-132.34-.05-198.5-.04-5.98,0-11.99-.07-17.53,2.77-8.18-17.78-17.88-34.65-29.96-50.1Z"/>
  <path class="cls-7" d="M842.09,122.29c2.1-4.72,6.33-4.08,10.3-4.08,15.98,0,31.96,0,47.95,0,44.28,0,88.57,0,132.85,0,2.33,0,4.67.11,6.99,0,4.31-.19,5.94,1.94,5.87,6.06-.11,5.99,0,11.99-.01,17.98-.02,18.65-.06,37.29-.09,55.94-4.17,3.67-9.31,3.03-14.22,3.04-23.54.09-47.08.11-70.62,0-6.81-.03-13.17,1.09-18.97,4.76-16.44-13.46-32.93-26.86-49.31-40.39-15.89-13.12-31.67-26.37-47.46-39.61-1.25-1.05-2.19-2.45-3.28-3.69Z"/>
  <path class="cls-48" d="M1096.14,174.19c-.03-19.62-.09-39.25-.09-58.87,0-11.05.04-11.1,10.77-11.11,38.91-.02,77.83,0,116.74,0,28.94,0,57.87-.03,86.81.05,2.8,0,7.55-1.72,5.69,4.5-9.2,10.05-20.45,17.72-30.68,26.58-15.99,13.85-32.39,27.23-48.67,40.75-1.23,1.02-2.82,1.62-4.25,2.41-16.17-2.08-32.41-.93-48.62-1.07-24.51-.2-49.02,0-73.53-.09-4.91-.02-10.04.56-14.18-3.14Z"/>
  <path class="cls-13" d="M1639.49,839.84c3.69-1.85,7.63-1.96,11.66-1.96,79.54.04,159.08.02,238.62.07,3.52,0,7.43-1.15,10.31,2.17,0,0-.12-.09-.12-.09-1.01.25-1.46,1.22-2.25,1.75l-.13.07c-.97,1.24-2.95.85-3.77,2.33-19.79,14.1-41.45,24.91-63.13,35.62-10.66,5.27-21.11,11.14-32.74,14.26-8.6-3.28-17.39-2.68-26.46-2.52-19.49.35-39.03,1.05-58.53,0-6.33-.34-12.67-.7-18.9.12-18.57,2.47-37.1-.1-55.64-.13-9.25-.02-18.5,1.97-27.78-.2-3.2-.75-6.71-.3-8.89-3.5,12.58-16,25.16-32.01,37.75-48.01Z"/>
  <path class="cls-55" d="M850.4,583.79c-4.66.08-9.31.22-13.97.22-218,.01-436,0-653.99.01-3,0-5.99.09-8.99.02-3.25-.07-4.89,1.57-5.31,4.66-1.78-1.65-2.02-3.8-1.97-6.05-1.34-1.99.22-4.86-1.97-6.59l.08.12c-1.54-1.78.01-4.52-1.91-6.18-.35-.42-.47-.9-.36-1.44,1.73-2.66,4.44-2.55,7.12-2.54,5.66,0,11.32,0,16.98,0,208.71,0,417.41,0,626.12,0,4.96,0,10.04.63,14.52-2.36,8.54,5.94,16.71,12.32,23.66,20.13Z"/>
  <path class="cls-21" d="M1054.06,1445.65c-.04-3.3.6-6.03,4.8-5.94,1.99.05,3.99-.03,5.98-.03,70.14,0,140.28-.04,210.42.12,3.73,0,9.09-2.64,10.72,3.89,0,0,0,.01,0,.01-.77.67-1.58,1.31-1.72,2.43l.22-.23c-1.87.66-1.4,2.74-2.38,3.95l.06-.1c-1.43.81-.92,2.81-2.26,3.68-10.16,17.39-22.13,33.42-35.98,48.05-.03-2.77-.15-5.53-3.9-5.71-2.32-.11-4.65-.1-6.98-.1-52.56,0-105.12,0-157.68,0-1.66,0-3.33.11-4.99,0-4.8-.33-6.13,2.09-6.42,6.6-.36,5.79,2.13,11.96-1.84,17.37.25-16.74,1.59-33.52-2.01-50.1-1.39-6.4-2.85-12.79-4.28-19.18-.71-1.51-.45-3.38-1.75-4.67v-.03Z"/>
  <path class="cls-20" d="M1731.97,983.8c-6.8-2.57-13.45-3.91-19.37,2.08-2.36,2.38-5.51,1.98-8.48,1.98-39.58,0-79.17.5-118.73-.3-11.86-.24-23.64,1.28-35.46.32-2.62-.21-5.83.8-7.67-1.26-5.23-5.87-12-4.4-18.53-4.82-8.84-.56-17.98,2.1-26.49-2.29,17.56-15.98,35.83-31.11,54.58-45.66,4.79-4.15,10.35-5.3,16.62-5.26,38.3.28,76.61.08,114.91.14,5.65,0,11.4-.45,16.34,3.2l.06.1c1.24.97.85,2.94,2.3,3.78,10.82,15.47,20.79,31.47,29.92,48Z"/>
  <path class="cls-11" d="M436.26,182.16c-3.77-4.71-1.74-10.22-1.87-15.34-.33-13.13.99-12.65-12.32-12.64-47.83.01-95.66-.04-143.49.06-5.7.01-11.22-.48-16.63-2.23,21.94-25.07,46.39-47.32,74.09-65.91,9.16-5.17,19.64-5.2,29.12-4,16.09,2.05,31.91-.16,47.83.03,10.63.13,21.22,1.11,31.87,1.1,3.84,0,9.54.08,7.5,7.17-3.88,10.18-8.46,20.1-11.36,30.65-4.53,16.45-5.61,33.22-4.89,50.18.16,3.64.1,7.28.14,10.92Z"/>
  <path class="cls-13" d="M1210.37,885.54c-16.97.12-33.94.32-50.91.34-37.61.05-75.23,0-112.84.04-4.62,0-9.31-.6-13.78,1.39-1.85.82-3.99.73-5.86-.1-3.5-1.57-7.19-1.59-10.8-1.26-16.5,1.52-32.97-.41-49.47-.12-16.3.29-32.63-.27-48.93.14-24.82.63-49.67.37-74.47.37-25.14,0-50.32-.3-75.46-.25-28.15.06-56.32.24-84.46.29-31.8.05-63.62-.03-95.43-.42-6.59-.08-13.23-.8-19.77,1.47-4.57,1.58-8.91-1.69-13.67-1.66-35.61.24-71.23.17-106.85.08-4.88-.01-9.55,2.13-14.68.51-2.3-.73-5.02,1.28-6.72,3.54-.66.61-1.33.62-2,.03h0c-.65-.73-1.28-1.48-2.16-1.94l.11.1c-.54-.9-1.22-1.64-2.22-2.04l.16.16c-.45-1.02-1.14-1.78-2.26-2.07l.19.22c-.57-1.73-2.7-1.24-3.58-2.53l-.18-.14c-.71-.55-1.39-1.13-2.03-1.76l-.02-.02c-.67-.69-1.24-1.5-2.15-1.92,0,0-.02.08-.03.08,4.72-5.87,11.71-6.87,17.93-5.57,11.98,2.5,23.94,1.59,35.78,1.01,6.32-.31,12.44.55,18.66.49,23.65-.22,47.31-.08,70.97-.1,3.98,0,7.96.32,11.82-1.31,2.5-1.05,5.23-.83,7.86-.09.64.18,1.25.65,1.88.65,17.43.06,34.87.36,52.29-.14,3.91-.11,7.71-.2,11.65-.07,17.41.55,34.86.58,52.28.09,3.91-.11,7.71-.23,11.65-.11,17.41.56,34.86.6,52.28.12,3.9-.11,7.61-1,11.67-.03,8.88,2.12,17.81-.65,26.6-.59,8.82.07,17.57,1.42,26.63.79,13.99-.98,28.17-1.1,42.15.02,9.41.76,18.52-1.16,27.61-.81,8.87.34,17.69,2.6,26.58.33,3.35-.86,6.44-.69,9.79.1,7.85,1.85,15.85,1.77,23.71.08,6.63-1.43,13.14-1.27,19.77-.2,14.88,2.39,29.91,1.75,44.76.43,5.92-.53,11.92-1.61,17.79-1.1,22.06,1.92,44.15,1.96,66.25,1.86,5.3-.03,10.51-.1,15.81-1.45,4.39-1.12,9.52-1.36,13.87-.25,10.57,2.7,21.2,1.66,31.78,1.58,9.52-.07,19.3,2.02,28.53-2.61,1.46-.73,3.86.39,5.82.65,6.35,3.43,11.7,8.04,16.13,13.72Z"/>
  <path class="cls-42" d="M2113.78,542.44c-1.04-8.22-1.04-8.35-8.58-8.37-22.57-.07-45.18-.8-67.71.24-15.55.72-30.97-.61-46.47-.43-41.75.48-83.52-.05-125.28.31-11.43.1-23,1.12-34.32,1.15-11.09.03-22.43-1.23-33.68-1.3-22.57-.13-45.15.08-67.72-.04-4.93-.03-6.11,2.31-6.32,6.72-.22,4.46,1.87,9.37-1.94,13.33-.1-10.71-.02-21.42,2.01-32,2.54-2.96-.37-7.02,2.03-10,0,0,0,0,0,0,7.29.06,14.27,2.89,21.7,2.06,15.8-1.77,31.64.95,47.45-.11,16.5-1.11,32.97.48,49.46.06,5.95-.15,11.85.17,17.79-1.51,3.67-1.04,8.05-.78,11.85.05,9.25,2.03,18.31,2.14,27.54-.08,4.19-1.01,8.63-.92,12.88.12,8.87,2.17,17.68,2.17,26.56,0,4.24-1.04,8.68-1.11,12.88-.1,9.22,2.22,18.31,2.23,27.53.02,2.85-.68,6.22-1.18,8.89-.32,8.02,2.58,16.3-.7,24.31,1.66,2.38.7,5.4.27,7.86-.51,5.62-1.77,11.02-1.76,16.61.08,2.14.7,4.71.96,6.9.51,10.85-2.25,21.64.29,32.45.07,2.65-.05,5.61.36,7.87-.66,8.15-3.7,16.26,1.29,24.42-.34,2.29-.46,4.83,2.02,4.86,5.3.04,3.99.11,7.99.16,11.98-.11,4.13.56,8.4-1.97,12.14Z"/>
  <path class="cls-4" d="M1699.69,931.92c-43.24-.01-86.47-.04-129.71-.03-6.12,0-12.4-1.43-18.16,1.95,2.75-4.27,7.12-6.8,10.97-9.78,14.09-10.9,26.12-23.98,38.96-36.2,10.39-.63,20.71,4.62,31.21.29,2.07-.85,4.55-.06,6.83.68,1.86.6,4.13,1.48,5.79.93,8.24-2.74,16.34-.15,24.46.23,11.58.54,22.97-1.53,34.48-1.93,2.99-.1,6.01-.51,8.86.71,2.91,1.25,6.01-.1,8.64.31,11.23,1.73,22.29-2.33,33.27-.67,6.34.96,12.15,1.44,18.55.09,6.71-1.41,13.84-1.51,20.6,1.29,2.14.89,3.17,2.19,3.53,4.3,0,0-.04-.05-.04-.05-1.24.92-3.02.64-4.12,1.87l-.04.02c-1.57,1.78-4.52-.05-5.89,2.24l.12-.08c-1.29.85-3.07.58-4.17,1.84h-.02c-1.09,1.1-2.81.74-3.95,1.72-.45.44-.98.59-1.6.44-1.38.85-3.24.51-4.45,1.77l-.54.4-.67-.09c-1.57.63-3.48.38-4.74,1.83l.03-.02c-1.67,1.66-4.53-.07-6.01,2.12l.09-.06c-1.23.91-2.96.61-4.13,1.69l-.7.41-.81-.04c-1.41.79-3.23.5-4.5,1.67-14.94,6.38-30.71,10.05-46.25,14.52-2.62.75-7.39.19-5.87,5.63Z"/>
  <path class="cls-40" d="M1096.14,174.19c41.36,0,82.73-.01,124.09,0,4.56,0,9.5-.96,12.22,4.3,0,0-.22-.18-.22-.18-.99.41-1.63,1.18-2.15,2.07l.11-.12c-.91.48-1.58,1.2-2.14,2.04l.08-.08c-.83.52-1.47,1.25-2.13,1.94h0c-.64.65-1.32,1.25-2.04,1.79l-.16.12c-.89,1.3-2.94.83-3.66,2.4l.12-.17c-.96.43-1.65,1.15-2.16,2.07l.11-.12c-.93.49-1.57,1.29-2.14,2.14-9.29,9.55-20.16,17.3-30.09,26.12-7.21,6.4-14.8,12.39-22.21,18.57-4.87,4.07-9.98,7.73-15.88,10.24-22.86,9.75-51.35-8.36-52.03-30.78.1-14.12.2-28.25.3-42.38Z"/>
  <path class="cls-47" d="M452.36,90.4c-.04-3.54-2.69-4.64-5.33-4.65-10.43-.05-20.79-.24-31.23-1.12-10.21-.86-20.63,1.11-30.98,1.52-5.58.22-11.23.61-16.69-1.52-1.76-.68-4.01-.72-5.89-.34-8.67,1.74-17.51.55-26.2,1.81,13.74-11.7,29.38-20.52,45.09-29.12,37.86-20.73,77.94-35.64,120.34-43.88,12.01-2.33,24.03-5.3,36.44-5.05,4.18-.07,8.89-3.5,12.19,1.95-29.8,9.63-55.27,25.85-76.11,49.37-8.44,9.53-14.42,20.68-21.63,31.02Z"/>
  <path class="cls-9" d="M1047.75,1567.24c5.68,3.77,10.36,8.42,11.64,15.39,1.08,5.9,4.7,7.12,10.04,7.07,18.91-.18,37.83-.13,56.74-.02,3.47.02,7.44-1.3,10.09,2.41-18.1,12.5-37.96,21.66-57.96,30.53-34.49,15.29-70.61,24.99-107.85,30.63-3.26.49-6.61.44-9.91.64-3.61.06-7.86,3.26-10.35-2.13,4.33-1.7,8.68-3.34,12.97-5.11,31.76-13.13,56.47-34.62,74.94-63.45,2.5-3.9,4.96-7.82,7.44-11.73,1.8-.81,1.51-2.76,2.25-4.15l-.04-.09Z"/>
  <path class="cls-61" d="M497.96,1229.96c-3.47-6.48-.93-13.46-1.7-20.17-2.12-16.17-.48-32.42-.9-48.62-.13-4.99,3.78-6,7.46-6.18,16.25-.78,32.53-.78,48.78,0,4.22.2,7.03,1.83,7.75,7.12,2.94,21.79,1.82,43.61,1.47,65.44-1.81,2.3-4.44,3.03-7.1,3.06-18.59.2-37.2,1.31-55.76-.63Z"/>
  <path class="cls-35" d="M560.2,1227.79c.01-13.62-.36-27.25.18-40.85.33-8.4-2.14-16.39-2.24-24.66-.04-3.49-2.29-4.45-5.3-4.45-16.94,0-33.88.06-50.82-.05-5.24-.04-5.78,3.1-5.76,7.17.06,14.95.01,29.9,0,44.84-2.44-2.05-1.63-4.88-1.67-7.43-.26-19.57-.84-39.14-.49-58.7.18-10-2.09-19.72-1.91-29.65-2.4-5.89.68-12.33-1.84-18.21l-.02-.05c.65-5.34,5.13-4.53,8.39-4.73,10.59-.68,21.25.34,31.82-.8,4.67-.5,6.06,2.88,8.34,5.43,9.24,13.7,13.4,29.41,17.58,45.07,3.95,14.78,5.81,29.88,5.81,45.2,0,21.27.07,42.54.11,63.82-6.36-5.03-7.02-11.68-2.19-21.94Z"/>
  <path class="cls-52" d="M560.2,1227.79c.01,5.26.02,10.51.04,15.77,0,2.3-.15,4.66,2.15,6.17,3.11,4.03,1.36,8.88,1.98,13.3,1.32,9.38,1.56,18.91,2.24,28.37-3.23,3.89-7.79,3.23-12.02,3.32-9.65.2-19.3.25-28.94.01-6.55-.16-12.51.98-17.65,5.26-4.94-15.73-7.11-31.91-7.68-48.34-3.04-7.03,1.19-14.84-2.33-21.82,0,0-.01.13-.01.14,2.88-3.33,6.79-2.13,10.31-2.15,17.31-.1,34.62-.03,51.93-.03Z"/>
  <path class="cls-3" d="M942.15,205.98c1.01-6.87,5.82-7.87,11.63-7.85,27.42.08,54.84.04,82.27.04,3.3,0,6.61,0,9.91.01.1,6.13.2,12.25.3,18.38.15.56.09,1.09-.19,1.59-1.88,1.67-.34,4.39-1.89,6.16l.07-.11c-1.55,1.1-1.17,3.06-1.99,4.49-10.49,20.99-36.01,27.88-55.79,14.44-9.57-6.5-18.57-13.92-26.52-22.46-1.37-2.18-3.97-2.85-5.71-4.58l-.13-.1c-.71-.59-1.39-1.19-2.06-1.82h.02c-.64-.72-1.29-1.44-2.13-1.95l.09.09c-.56-.85-1.24-1.57-2.15-2.04l.11.11c-.5-.92-1.19-1.64-2.16-2.06l.13.16c-.72-1.58-2.77-1.1-3.68-2.39l-.13-.11Z"/>
  <path class="cls-9" d="M683.02,1575.39c7.87,6.27,13.11,14.91,19.96,22.12,8.86,9.33,16.3,20.08,27.8,26.6,1.53.87,1.49,2.1,1.5,3.3.06,9.32.05,18.64,0,27.96-.02,2.36-1.44,3.38-3.76,3.72-3.82.56-45.31-.33-50.15-1.38,5.55-23.58,1.9-45.31-14.14-64.22-2.75-4.16-6.66-7.25-9.95-10.91-1.84-2.04-3.98-4.81-.16-6.23,8.34-3.11,16.29-9.37,26.08-4.73l.02.04c1.12,1.11.78,3.31,2.8,3.74Z"/>
  <path class="cls-51" d="M507.99,1299.98c1.96-7.98,1.96-8.12,9.37-8.21,16.41-.21,32.83-.26,49.24-.38,0,0-.13.08-.13.08,2.04,3.86-.8,8.47,1.86,12.24l-.03-.06c2.69,5.78-1.08,12.31,2.13,18.03,1.88,1.9,3.05,4.19,3.39,6.82,1.01,7.71,1.95,15.43,2.92,23.14-10.35,2.6-20.87.89-31.27.72-10.52-.16-19.63.1-21.22,13.34-5.75-17.51-11.15-35.11-14.18-53.34-2.09-3.95.87-8.76-2.12-12.56l.04.18Z"/>
  <path class="cls-39" d="M524.26,1365.7c-.09-2.65.52-5.57-.4-7.88-1.98-4.97.52-7.6,4.51-7.62,16.13-.09,32.36-2.53,48.38,1.44,3.43,8.13,4.48,16.92,6.99,25.3,3.65,12.23,7.24,24.47,10.86,36.71-4.57,1.27-8.58-.95-12.23-2.8-14.04-7.11-28.08-5.48-42.27-.96-6.37-14.33-12.34-28.81-15.83-44.18Z"/>
  <path class="cls-32" d="M680.2,1571.61c-9.47-.26-17.64,4.46-26.61,6.89,2,6.21,9.92,8.09,10.65,14.98-16.79-14.51-30.66-31.69-44.6-48.8-3.32-4.08-6.41-8.34-9.61-12.52-.95-2.38-2.14-4.61-4.03-6.41l.12.13c-.38-.9-1.17-1.48-1.74-2.24l-.11-.12c-1.96-2.68-4.06-5.25-6.19-7.79l.05.07c-1.01-1.18-.53-3.22-2.29-3.97v.09c1.04-6.77,6.64-7.16,11.3-6.71,9.85.96,19.73.96,29.57,1.89l-.06.11c.61,2.53,2.04,4.56,3.89,6.34,12.14,20.1,26.35,38.78,39.67,58.06Z"/>
  <path class="cls-34" d="M636.7,1507.1c-7.17,4.16-14.8,2.97-22.29,1.54-6.72-1.28-13.18-2.36-18.59,3.28-7.1-6.16-10.7-14.88-15.55-22.52-5.94-9.35-12.41-18.62-16.22-29.24-3.34-5.14-2.04-9.11,3.73-10.52,12.77-3.11,25.6-3.11,37.91,2.1,5,2.11,5.24,8.22,8.45,11.93.95,1.31,2.26,2.49,2.8,3.95,5.12,13.9,13.63,26.09,19.75,39.47Z"/>
  <path class="cls-30" d="M538.88,1095.64c-2.76-1.25-4.8-2.91-8.7-2.48-10.09,1.1-20.37.48-30.57.7-3.16.07-6.68-1.09-9.28,1.9-2.43-8.46-5.06-16.87-7.24-25.4-4.59-18.05-11.87-35-20.66-51.35-.73-1.35-2.29-2.48-1.26-4.39,2.23-1.43,3.77.37,5.3,1.33,28.82,18.2,51.86,42.03,69.12,71.41,1.49,2.53,2.21,5.51,3.28,8.28Z"/>
  <path class="cls-49" d="M614.15,1463.67c-.8-.56-1.94-.95-2.35-1.72-5.63-10.56-14.91-12.21-25.53-10.58-2.38.36-4.52-.12-6.73-.94-5.22-1.94-9.58,1.07-14.08,2.81-3.72,1.44-.63,4.66-1.41,6.92-8.72-13.07-14.96-27.32-19.91-42.18-1-1.26-.58-3.2-2.04-4.23l.05.08c-1.01-1.2-.59-3.13-2.08-4.08,0,0,.02.13.02.14.96-4.98,4.83-6,8.94-6.11,7.94-.2,15.9-.07,23.85-.06.66,0,1.51-.19,1.95.14,5.98,4.5,13.79,5.3,19.77,9.79,6.52,16.68,13.04,33.35,19.56,50.03Z"/>
  <path class="cls-50" d="M328.53,1647.27c2.33.16,3.34,1.61,3.24,3.74-.13,2.79-.5,5.56-.77,8.34-7.98.08-15.96.23-23.95.23-97.84.02-195.68.01-293.51.01H2.75c3.23-2.68,6.76-1.96,10.14-1.96,95.84-.05,191.68-.03,287.52-.06,5.9,0,11.88.89,17.24-3.17,1.56-1.19,4.53-.98,6.78-.74,5.96.63,4-3.47,4.1-6.4Z"/>
  <path class="cls-13" d="M1229.98,907.89c-3.74-5.79-9.35-9.83-13.87-14.89-2.13-2.38-5.14-4.07-5.89-7.53,8.99,5.85,16.01,13.7,22.46,22.13-.9.1-1.8.19-2.71.29Z"/>
  <path class="cls-36" d="M552.03,5.96c7.89-3.31,15.98-1.31,24.12-.43-4.77.8-9.54,1.6-14.31,2.39-2.99-2.04-7.01,1.03-9.81-1.96Z"/>
  <path class="cls-16" d="M1369.75,1123.58c0,10.24,0,20.49.01,30.73-2.6-10.24-3.07-20.49-.01-30.73Z"/>
  <path class="cls-5" d="M552.03,5.96c3.2,1,7.01-1.04,9.81,1.96-3.92.69-7.83,1.39-11.75,2.08-3.63-3.36-8.19-.9-12.19-1.95,4.37-2.96,9.43-1.29,14.12-2.09Z"/>
  <path class="cls-56" d="M950.18,1651.76c2.93,3.24,6.99.96,10.35,2.13-4.43,2.47-9.34,1.49-14.05,1.99-1.93.93-3.94.75-5.96.43-.98-.74-1.07-1.58-.27-2.51,3.36-.41,6.38-2.51,9.92-2.04Z"/>
  <path class="cls-61" d="M497.97,1229.82c3.46,2.32,2.11,5.9,2.25,9.02.19,4.26.07,8.53.08,12.8-4.36-6.89-1.66-14.54-2.33-21.82Z"/>
  <path class="cls-52" d="M570.43,1321.68c-4.17-5.6-1.46-12.01-2.13-18.03,1.24,5.95,2.65,11.87,2.13,18.03Z"/>
  <path class="cls-30" d="M490.35,1095.81c3.7,5.76,1.28,12.13,1.85,18.21-3.42-5.78-.69-12.19-1.85-18.21Z"/>
  <path class="cls-68" d="M940.37,1655.39c2.04.16,4.08.32,6.12.48-5.25,2.55-10.84,1.59-16.34,1.58-.69-.41-.91-.8-.66-1.18.24-.37.48-.55.73-.55,1.21-.07,2.43-.15,3.64-.22,2.15-1.23,4.32-1.2,6.52-.11Z"/>
  <path class="cls-29" d="M546.23,991.89c4.22.25,6.61,2.7,7.86,6.53-3.27-1.39-5.96-3.48-7.86-6.53Z"/>
  <path class="cls-31" d="M149.91,1341.98c3.91,1.18,6.26,3.64,6.42,7.87-2.74-2.13-5.08-4.6-6.42-7.87Z"/>
  <path class="cls-52" d="M507.95,1299.8c4.23,3.59,1.67,8.33,2.12,12.56-1.27-4.09-2.03-8.27-2.12-12.56Z"/>
  <path class="cls-52" d="M568.33,1303.71c-3.77-3.6-1.6-8.1-1.86-12.23,2.69,3.76.93,8.2,1.86,12.23Z"/>
  <path class="cls-34" d="M598.07,1515.73c3.38,1.55,5.88,3.8,6.19,7.79-3.17-1.72-5.42-4.16-6.19-7.79Z"/>
  <path class="cls-12" d="M158.38,1447.67c3.39,2.87,1.59,6.74,1.95,10.19-2.54-3.03-1.38-6.78-1.95-10.19Z"/>
  <path class="cls-18" d="M1725.79,512.05c-.48,3.37,1.35,7.22-2.03,10,.09-3.34.18-6.67.28-10.01.58,0,1.17,0,1.75,0Z"/>
  <path class="cls-57" d="M1449.77,1299.79c2.96,1.1,4.23,3.25,3.96,6.37-2.16-1.6-3.48-3.72-3.96-6.37Z"/>
  <path class="cls-51" d="M976.23,1353.68c3.06.19,5.12,1.55,5.63,4.76-2.39-.98-4.39-2.42-5.63-4.76Z"/>
  <path class="cls-34" d="M640.53,1513.55c-3.09-1.01-4.51-3.05-3.89-6.34,2.09,1.63,3.5,3.67,3.89,6.34Z"/>
  <path class="cls-34" d="M605.99,1525.75c3.11,1.02,4.34,3.23,4.03,6.41-2.22-1.58-3.5-3.76-4.03-6.41Z"/>
  <path class="cls-37" d="M930.21,1655.73c-.07.57-.09,1.15-.07,1.73-2.17.24-4.34.47-6.56-.69,2.22-1.67,4.46-1.07,6.63-1.04Z"/>
  <path class="cls-7" d="M954.25,216.1c2.95.22,5.03,1.52,5.71,4.58-2.48-.81-4.56-2.11-5.71-4.58Z"/>
  <path class="cls-40" d="M1697.75,236.16c3.04,2.15,1.79,5.33,1.99,8.17-2.25-2.34-1.94-5.3-1.99-8.17Z"/>
  <path class="cls-42" d="M2111.83,552.58c.06-2.96-1.19-6.19,1.78-8.54.09,2.99.36,6.02-1.78,8.54Z"/>
  <path class="cls-42" d="M2109.79,562.45c.1-2.94-1.14-6.17,1.9-8.44.05,2.97.21,5.96-1.9,8.44Z"/>
  <path class="cls-55" d="M855.95,588.08c-2.86-.2-4.9-1.46-5.68-4.37,2.64.49,4.46,2.04,5.68,4.37Z"/>
  <path class="cls-8" d="M1703.71,673.86c-.14,2.84,1.04,6-1.98,8.14.01-2.87-.2-5.8,1.98-8.14Z"/>
  <path class="cls-62" d="M288.6,775.85c2.84.25,4.89,1.5,5.59,4.44-2.59-.57-4.4-2.11-5.59-4.44Z"/>
  <path class="cls-13" d="M438.46,901.83c2.99.21,5.06,1.54,5.66,4.66-2.41-.92-4.46-2.27-5.66-4.66Z"/>
  <path class="cls-43" d="M462.41,921.85c2.91.16,4.97,1.41,5.71,4.39-2.6-.55-4.46-2.08-5.71-4.39Z"/>
  <path class="cls-43" d="M474.44,931.83c2.9.19,4.97,1.43,5.66,4.44-2.58-.6-4.42-2.14-5.66-4.44Z"/>
  <path class="cls-71" d="M943.99,662c-2.92-.12-4.98-1.37-5.71-4.36,2.66.47,4.49,2.02,5.71,4.36Z"/>
  <path class="cls-45" d="M422.52,1037.76c-2.94-1-4.3-3.04-4.03-6.14,2.33,1.4,3.54,3.54,4.03,6.14Z"/>
  <path class="cls-64" d="M648.28,1077.81c3.09.13,5.17,1.47,5.74,4.69-2.41-.95-4.46-2.35-5.74-4.69Z"/>
  <path class="cls-16" d="M1369.91,1155.79c3.02,2.35,1.77,5.61,1.82,8.59-2.04-2.56-2-5.56-1.82-8.59Z"/>
  <path class="cls-19" d="M762.32,1173.74c3.03.2,5.1,1.55,5.64,4.72-2.39-.97-4.41-2.37-5.64-4.72Z"/>
  <path class="cls-26" d="M862.2,1257.75c2.97.13,5.09,1.33,5.66,4.49-2.54-.67-4.4-2.2-5.66-4.49Z"/>
  <path class="cls-24" d="M109.95,1271.9c3.66,1.76,2.16,5.12,2.44,7.93-1.63-2.39-2.16-5.12-2.44-7.93Z"/>
  <path class="cls-66" d="M1675.62,164.23c2.59,1.34,2.13,3.77,2.14,6.02-1.97-1.56-2.12-3.77-2.14-6.02Z"/>
  <path class="cls-66" d="M1677.73,170.2c2.44,1.38,2.02,3.76,2.08,5.97-1.94-1.56-2.08-3.74-2.08-5.97Z"/>
  <path class="cls-51" d="M1328.05,1354c-.05-2.32-.56-4.79,2.04-6.25.08,2.33-.25,4.53-2.04,6.25Z"/>
  <path class="cls-13" d="M1787.86,898.16c1.24-2.65,3.66-2.2,5.89-2.24-1.54,1.86-3.64,2.25-5.89,2.24Z"/>
  <path class="cls-7" d="M1044.18,224.32c-.08-2.27-.5-4.64,1.88-6.16.11,2.28.19,4.55-1.88,6.16Z"/>
  <path class="cls-23" d="M164.2,576.07c2.76,1.57,2.1,4.16,1.98,6.59-1.85-1.84-2.01-4.18-1.98-6.59Z"/>
  <path class="cls-42" d="M2105.64,572.02h1.95c.14,2.32,0,4.56-1.83,6.31-.04-2.1-.08-4.21-.12-6.31Z"/>
  <path class="cls-23" d="M162.36,570.01c2.42,1.51,2,3.89,1.91,6.18-1.98-1.64-1.98-3.9-1.91-6.18Z"/>
  <path class="cls-13" d="M1761.85,908.09c1.34-2.6,3.75-2.15,6.01-2.12-1.58,1.9-3.74,2.15-6.01,2.12Z"/>
  <path class="cls-42" d="M2107.82,570.53c-.1-2.35-.66-4.81,1.75-6.48.17,2.36.02,4.64-1.75,6.48Z"/>
  <path class="cls-58" d="M940.37,1655.39c-2.17.04-4.34.08-6.51.11,1.81-1.8,4.03-2.06,6.41-1.71-.11.54-.07,1.07.11,1.6Z"/>
  <path class="cls-13" d="M1767.83,905.99c1.05-1.98,2.84-2.04,4.74-1.83-1.23,1.52-2.89,1.9-4.74,1.83Z"/>
  <path class="cls-13" d="M1773.78,903.85c1.02-1.76,2.67-1.94,4.45-1.77-1.13,1.48-2.69,1.88-4.45,1.77Z"/>
  <path class="cls-33" d="M1487.39,1359.93c2.15.55,2.43,2.21,2.38,4.05-1.6-.88-2.22-2.33-2.38-4.05Z"/>
  <path class="cls-13" d="M1779.83,901.63c.93-1.46,2.37-1.74,3.95-1.71-.99,1.33-2.32,1.86-3.95,1.71Z"/>
  <path class="cls-13" d="M426.49,891.83c1.68.15,3.15.61,3.58,2.53-1.67-.16-2.91-.95-3.58-2.53Z"/>
  <path class="cls-13" d="M414.51,881.83c1.67.16,3.14.62,3.58,2.53-1.68-.16-2.9-.96-3.58-2.53Z"/>
  <path class="cls-72" d="M390.56,861.82c1.81.21,3.3.81,3.55,2.92-1.52-.56-2.87-1.33-3.55-2.92Z"/>
  <path class="cls-13" d="M1783.8,899.92c.91-1.69,2.44-2,4.17-1.84-.95,1.61-2.49,1.89-4.17,1.84Z"/>
  <path class="cls-4" d="M1702.05,935.8c-1.76-.66-2.2-2.12-2.3-3.78,1.47.83,2.14,2.15,2.3,3.78Z"/>
  <path class="cls-13" d="M1793.79,895.9c.9-1.66,2.42-1.98,4.12-1.87-.96,1.53-2.44,1.93-4.12,1.87Z"/>
  <path class="cls-43" d="M488.57,943.77c.58.05,1.16.05,1.73.02.58.83,1.17,1.65,1.75,2.48-1.63-.18-2.8-1-3.49-2.5Z"/>
  <path class="cls-13" d="M1751.81,911.77c1.06-1.73,2.72-1.86,4.5-1.67-1.17,1.44-2.73,1.83-4.5,1.67Z"/>
  <path class="cls-13" d="M1757.81,909.72c.97-1.55,2.47-1.82,4.13-1.69-.99,1.51-2.46,1.84-4.13,1.69Z"/>
  <path class="cls-25" d="M44.04,1093.98c2.02.56,2.35,2.13,2.36,3.9-1.49-.88-2.29-2.17-2.36-3.9Z"/>
  <path class="cls-44" d="M1893.81,844.2c.64-1.78,2.09-2.23,3.77-2.33-.81,1.5-2.15,2.14-3.77,2.33Z"/>
  <path class="cls-39" d="M540.07,1409.75c1.78.8,2.14,2.33,2.08,4.08-1.6-.9-2.29-2.26-2.08-4.08Z"/>
  <path class="cls-12" d="M1279.9,1453.43c.11-1.62.56-3.03,2.26-3.68-.09,1.64-.81,2.88-2.26,3.68Z"/>
  <path class="cls-39" d="M542.1,1413.75c1.88.83,2.12,2.45,2.04,4.23-1.51-1.01-1.97-2.52-2.04-4.23Z"/>
  <path class="cls-12" d="M1054.07,1445.68c1.83,1.09,1.94,2.82,1.75,4.67-1.51-1.21-1.85-2.86-1.75-4.67Z"/>
  <path class="cls-7" d="M1042.26,228.69c-.16-1.86,0-3.58,1.99-4.49.03,1.8-.47,3.37-1.99,4.49Z"/>
  <path class="cls-34" d="M595.83,1511.82c2.04.59,2.34,2.17,2.29,3.97-1.61-.83-2.05-2.34-2.29-3.97Z"/>
  <path class="cls-74" d="M1626.02,1525.6c1.72.14,3.18.61,3.48,2.63-1.63-.25-2.82-1.09-3.48-2.63Z"/>
  <path class="cls-69" d="M1047.8,1567.32c.19,1.9-.12,3.52-2.25,4.15.24-1.66.63-3.24,2.25-4.15Z"/>
  <path class="cls-32" d="M683.02,1575.39c-2.19-.31-2.72-1.86-2.8-3.74,1.48.84,2.25,2.21,2.8,3.74Z"/>
  <path class="cls-7" d="M942.28,206.09c1.65.15,3.11.58,3.68,2.39-1.69-.08-2.96-.81-3.68-2.39Z"/>
  <path class="cls-32" d="M2108.32,1587.41c-2.17-.45-2.58-2.05-2.55-3.94,1.64.8,2.18,2.32,2.55,3.94Z"/>
  <path class="cls-48" d="M1220.13,188.49c.56-1.8,2.02-2.24,3.66-2.4-.71,1.57-1.97,2.31-3.66,2.4Z"/>
  <path class="cls-12" d="M1282.09,1449.85c-.06-1.83.25-3.44,2.38-3.95-.17,1.69-.76,3.13-2.38,3.95Z"/>
  <path class="cls-19" d="M760.13,1171.83c.69.6,1.37,1.2,2.06,1.8-1.12-.11-1.8-.71-2.06-1.8Z"/>
  <path class="cls-43" d="M494.01,948.01c1.12.28,1.85.97,2.2,2.07-1.14-.26-1.93-.88-2.2-2.07Z"/>
  <path class="cls-13" d="M429.89,894.15c1.2.19,1.95.88,2.26,2.05-1.2-.2-2.01-.82-2.26-2.05Z"/>
  <path class="cls-38" d="M1881.62,1223.77c-.56-.78-1.13-1.56-1.69-2.33,1.14.36,1.64,1.19,1.69,2.33Z"/>
  <path class="cls-13" d="M424.28,889.92c.67,0,1.33-.02,2-.03.02.61.05,1.22.08,1.83-1.12-.11-1.79-.73-2.08-1.8Z"/>
  <path class="cls-13" d="M422.11,887.99c.72.64,1.44,1.29,2.16,1.93-1.11-.21-1.85-.83-2.16-1.93Z"/>
  <path class="cls-13" d="M420,886.05c1.12.27,1.85.95,2.22,2.04-1.16-.22-1.94-.86-2.22-2.04Z"/>
  <path class="cls-26" d="M855.73,1252c1.18.19,1.94.87,2.28,2.01-1.19-.18-2.01-.79-2.28-2.01Z"/>
  <path class="cls-26" d="M857.88,1253.89c.73.66,1.46,1.32,2.18,1.98-1.16-.19-1.91-.82-2.18-1.98Z"/>
  <path class="cls-26" d="M860.02,1255.83c.7.62,1.4,1.24,2.1,1.85-1.11-.15-1.81-.77-2.1-1.85Z"/>
  <path class="cls-26" d="M867.68,1262.03c1.22.17,1.97.86,2.29,2.03-1.2-.19-2.02-.81-2.29-2.03Z"/>
  <path class="cls-26" d="M869.82,1263.92c1.12.24,1.86.91,2.22,2-1.17-.18-1.95-.82-2.22-2Z"/>
  <path class="cls-13" d="M417.9,884.14c1.19.21,1.94.9,2.26,2.07-1.19-.21-2.01-.83-2.26-2.07Z"/>
  <path class="cls-26" d="M871.96,1265.84c.71.63,1.43,1.26,2.14,1.89-1.13-.16-1.85-.79-2.14-1.89Z"/>
  <path class="cls-26" d="M874.15,1267.77c.67.58,1.33,1.15,2,1.73-1.09-.09-1.74-.68-2-1.73Z"/>
  <path class="cls-43" d="M479.93,936.07c1.15.23,1.9.92,2.24,2.04-1.19-.2-1.97-.85-2.24-2.04Z"/>
  <path class="cls-13" d="M412.3,879.93c.68.59,1.36,1.17,2.03,1.76-1.07-.13-1.74-.73-2.03-1.76Z"/>
  <path class="cls-13" d="M410.13,877.99c.72.64,1.43,1.28,2.15,1.92-1.12-.19-1.84-.83-2.15-1.92Z"/>
  <path class="cls-72" d="M388.34,859.92c.67.58,1.34,1.16,2.02,1.74-1.07-.11-1.72-.72-2.02-1.74Z"/>
  <path class="cls-72" d="M386.16,857.98c.71.63,1.42,1.27,2.14,1.9-1.11-.19-1.82-.82-2.14-1.9Z"/>
  <path class="cls-43" d="M482.05,937.99c.73.67,1.45,1.33,2.18,2-1.12-.24-1.88-.86-2.18-2Z"/>
  <path class="cls-31" d="M146.57,1337.7c.58.74,1.16,1.47,1.74,2.21-1.07-.35-1.56-1.16-1.74-2.21Z"/>
  <path class="cls-31" d="M148.22,1339.81c1.12.39,1.78,1.17,1.91,2.36-1.22-.31-1.84-1.12-1.91-2.36Z"/>
  <path class="cls-72" d="M381.94,854.13c1.18.21,1.92.9,2.25,2.04-1.18-.2-1.99-.82-2.25-2.04Z"/>
  <path class="cls-48" d="M1230.08,180.38c.33-1.09,1.05-1.79,2.15-2.07-.25,1.18-1.01,1.82-2.15,2.07Z"/>
  <path class="cls-51" d="M967.58,1346.06c1.26.13,2.01.82,2.3,2.04-1.22-.17-2.02-.81-2.3-2.04Z"/>
  <path class="cls-51" d="M969.72,1347.93c1.16.21,1.91.89,2.26,2.01-1.19-.18-1.98-.8-2.26-2.01Z"/>
  <path class="cls-48" d="M1228.04,182.31c.71-.68,1.43-1.36,2.14-2.04-.3,1.12-1.05,1.76-2.14,2.04Z"/>
  <path class="cls-44" d="M1897.71,841.79c.75-.58,1.5-1.16,2.25-1.75-.34,1.12-1.12,1.66-2.25,1.75Z"/>
  <path class="cls-51" d="M971.86,1349.84c.72.65,1.44,1.3,2.17,1.95-1.15-.17-1.9-.8-2.17-1.95Z"/>
  <path class="cls-51" d="M974.02,1351.77c.69.6,1.38,1.2,2.08,1.8-1.14-.09-1.82-.69-2.08-1.8Z"/>
  <path class="cls-29" d="M541.97,988c1.11.26,1.85.93,2.21,2.01-1.16-.2-1.94-.83-2.21-2.01Z"/>
  <path class="cls-46" d="M342.01,820.09c1.18.3,1.91,1.05,2.2,2.23-1.13-.35-1.94-1.02-2.2-2.23Z"/>
  <path class="cls-33" d="M1485.86,1357.74c1.05.47,1.65,1.25,1.74,2.41-1.2-.35-1.69-1.23-1.74-2.41Z"/>
  <path class="cls-72" d="M384.05,856.04c1.1.27,1.83.95,2.19,2.02-1.14-.23-1.91-.86-2.19-2.02Z"/>
  <path class="cls-62" d="M294.04,780.1c1.18.3,1.9,1.05,2.2,2.22-1.12-.35-1.94-1.01-2.2-2.22Z"/>
  <path class="cls-67" d="M2027.83,726.48c.2-1.19.84-2.02,1.96-2.48-.22,1.17-.89,1.98-1.96,2.48Z"/>
  <path class="cls-67" d="M2029.73,724.08c.6-.71,1.21-1.43,1.81-2.14-.17,1.08-.78,1.79-1.81,2.14Z"/>
  <path class="cls-48" d="M1225.99,184.17c.71-.65,1.42-1.29,2.13-1.94-.34,1.05-1.06,1.69-2.13,1.94Z"/>
  <path class="cls-43" d="M467.96,926.05c1.13.25,1.87.93,2.23,2.02-1.17-.2-1.95-.84-2.23-2.02Z"/>
  <path class="cls-43" d="M460.21,919.93c.69.61,1.39,1.22,2.08,1.83-1.11-.14-1.8-.75-2.08-1.83Z"/>
  <path class="cls-55" d="M858.18,589.99c-.69-.6-1.39-1.19-2.08-1.79,1.08.15,1.75.77,2.08,1.79Z"/>
  <path class="cls-43" d="M486.36,941.87c.65.57,1.31,1.15,1.96,1.72-1.07-.1-1.69-.71-1.96-1.72Z"/>
  <path class="cls-12" d="M1284.26,1446.13c.09-1.15.68-1.95,1.72-2.43-.05,1.18-.52,2.06-1.72,2.43Z"/>
  <path class="cls-43" d="M458.07,917.99c.72.66,1.45,1.31,2.17,1.97-1.12-.22-1.87-.84-2.17-1.97Z"/>
  <path class="cls-43" d="M455.97,916.05c1.14.25,1.87.94,2.22,2.04-1.18-.21-1.95-.85-2.22-2.04Z"/>
  <path class="cls-64" d="M641.88,1072.01c1.15.24,1.89.93,2.22,2.06-1.2-.19-1.95-.87-2.22-2.06Z"/>
  <path class="cls-43" d="M484.17,939.93c.7.62,1.41,1.24,2.11,1.87-1.09-.19-1.8-.8-2.11-1.87Z"/>
  <path class="cls-64" d="M643.98,1073.95c.73.66,1.45,1.32,2.18,1.99-1.13-.22-1.9-.83-2.18-1.99Z"/>
  <path class="cls-64" d="M646.1,1075.89c.7.63,1.4,1.25,2.1,1.88-1.13-.15-1.82-.79-2.1-1.88Z"/>
  <path class="cls-21" d="M1242,1503.64c.6-.67,1.2-1.34,1.79-2.01-.09,1.12-.71,1.77-1.79,2.01Z"/>
  <path class="cls-25" d="M46.38,1097.85c1.08.47,1.72,1.29,1.91,2.46-1.15-.42-1.8-1.23-1.91-2.46Z"/>
  <path class="cls-2" d="M703.75,1124.09c1.22.16,1.97.84,2.3,2.02-1.2-.17-2.03-.78-2.3-2.02Z"/>
  <path class="cls-29" d="M544.09,989.94c.71.65,1.42,1.3,2.13,1.95-1.12-.2-1.82-.86-2.13-1.95Z"/>
  <path class="cls-13" d="M436.26,899.92c.69.6,1.37,1.2,2.06,1.8-1.09-.14-1.77-.75-2.06-1.8Z"/>
  <path class="cls-7" d="M952.06,214.18c.69.61,1.37,1.21,2.06,1.82-1.06-.18-1.74-.81-2.06-1.82Z"/>
  <path class="cls-7" d="M949.94,212.23c.71.65,1.42,1.31,2.13,1.96-1.08-.26-1.79-.91-2.13-1.96Z"/>
  <path class="cls-74" d="M1617.31,1518.02c1.27.11,2.03.79,2.32,2.02-1.21-.17-2.04-.79-2.32-2.02Z"/>
  <path class="cls-74" d="M1619.46,1519.87c1.17.2,1.91.88,2.26,2.01-1.2-.17-1.98-.8-2.26-2.01Z"/>
  <path class="cls-74" d="M1621.6,1521.78c.72.64,1.45,1.29,2.17,1.93-1.16-.16-1.91-.77-2.17-1.93Z"/>
  <path class="cls-34" d="M604.37,1523.64c.58.75,1.16,1.49,1.74,2.24-1.08-.36-1.56-1.18-1.74-2.24Z"/>
  <path class="cls-74" d="M1623.77,1523.71c.69.59,1.38,1.17,2.07,1.76-1.14-.05-1.82-.65-2.07-1.76Z"/>
  <path class="cls-43" d="M472.25,929.91c.68.6,1.37,1.2,2.05,1.81-1.08-.15-1.77-.75-2.05-1.81Z"/>
  <path class="cls-2" d="M705.9,1125.96c1.11.25,1.85.91,2.22,1.99-1.15-.2-1.94-.82-2.22-1.99Z"/>
  <path class="cls-74" d="M1629.3,1528.02c1.26.09,2.03.76,2.35,1.97-1.2-.16-2.05-.74-2.35-1.97Z"/>
  <path class="cls-74" d="M1631.5,1529.84c1.13.23,1.88.89,2.25,1.98-1.16-.19-1.97-.79-2.25-1.98Z"/>
  <path class="cls-2" d="M708.04,1127.88c.71.64,1.42,1.28,2.12,1.93-1.13-.17-1.83-.83-2.12-1.93Z"/>
  <path class="cls-7" d="M947.88,210.27c.72.68,1.44,1.36,2.15,2.04-1.1-.28-1.86-.91-2.15-2.04Z"/>
  <path class="cls-7" d="M945.83,208.32c1.12.27,1.84.96,2.16,2.06-1.15-.24-1.92-.88-2.16-2.06Z"/>
  <path class="cls-43" d="M491.92,946.07c1.17.23,1.9.92,2.22,2.07-1.19-.21-1.95-.87-2.22-2.07Z"/>
  <path class="cls-13" d="M434.11,897.98c.72.65,1.44,1.29,2.16,1.94-1.12-.2-1.85-.84-2.16-1.94Z"/>
  <path class="cls-48" d="M1216.05,192.4c.33-1.09,1.05-1.81,2.14-2.14-.29,1.13-1.07,1.79-2.14,2.14Z"/>
  <path class="cls-13" d="M431.99,896.05c1.13.25,1.86.93,2.22,2.03-1.16-.21-1.94-.85-2.22-2.03Z"/>
  <path class="cls-32" d="M237.92,1591.89c1.28.26,2.01,1.04,2.26,2.31-1.16-.37-1.99-1.07-2.26-2.31Z"/>
  <path class="cls-48" d="M1218.09,190.39c.33-1.09,1.04-1.79,2.16-2.07-.24,1.19-1.01,1.82-2.16,2.07Z"/>
  <path class="cls-19" d="M755.83,1167.97c1.14.23,1.88.91,2.24,2.01-1.18-.18-1.96-.82-2.24-2.01Z"/>
  <path class="cls-19" d="M757.97,1169.89c.72.65,1.44,1.29,2.16,1.94-1.13-.19-1.87-.81-2.16-1.94Z"/>
  <path class="cls-43" d="M470.09,927.97c.72.65,1.44,1.29,2.16,1.94-1.11-.21-1.84-.84-2.16-1.94Z"/>
  <path class="cls-48" d="M1223.95,185.97c.68-.6,1.36-1.19,2.04-1.79-.33,1-.98,1.62-2.04,1.79Z"/>
</svg>