<?xml version="1.0" encoding="UTF-8"?>
<svg id="_레이어_1" data-name="레이어_1" xmlns="http://www.w3.org/2000/svg" viewBox="0 0 2152.52 1659">
  <defs>
    <style>
      .cls-1 {
        fill: #1f1311;
      }

      .cls-2 {
        fill: #241a17;
      }

      .cls-3 {
        fill: #231815;
      }

      .cls-4 {
        fill: #201513;
      }
    </style>
  </defs>
  <path class="cls-1" d="M935.85,1655.1c60.08-15.67,99.48-51.34,119.14-107.58,21.62-61.83-.9-132.09-52.35-172.03-27.61-21.43-53.78-44.72-80.55-67.22-180.27-151.49-360.07-303.54-540.95-454.31-27.37-22.82-54.93-45.44-81.72-68.93-79.16-69.41-130.15-155.38-146.92-259.73-22.35-139.11,12.21-263.15,105.18-369.39,60.22-68.81,134.73-116.09,223.98-138.77,28.46-7.23,57.41-11.24,86.84-12.29-27.03,5.71-51.56,16.65-73.22,33.87-60.6,48.17-77.19,134.09-38.7,199.76,12.15,20.73,28.2,37.38,46.59,52.74,160.28,133.91,320.23,268.22,480.23,402.46,65.33,54.81,130.25,110.11,195.99,164.42,25.77,21.28,50.77,43.06,71.91,69.05,52.5,64.55,85.63,137.69,96.47,220.33,26.85,204.66-78.33,390.71-267.47,474.1-40.83,18-83.53,28.75-127.79,33.57-4.91.54-9.91,1.24-16.65-.04Z"/>
  <path class="cls-4" d="M1548.74.68c20.24-1.6,40.17-.15,60,2.04,67.22,7.43,131.99,24.5,194.09,51.25,84.67,36.46,159.45,86.82,218.97,158.1,36.16,43.3,66.38,90.32,81.91,145.08,33.92,119.57,18.07,231.97-50.96,336.11-40.24,60.71-92.87,108.65-153.65,147.93-59.67,38.56-124.17,66.38-192.84,84.52-2.26.6-4.57.93-7.27,3.09,151.22,242.63,302.49,485.35,453.53,727.7-1.77,2.6-3.55,2.15-5.13,2.14-58.3-.39-116.63,1.48-174.9-.85-124.91-5-236.64-46.64-335.31-123.16-52.62-40.8-96.67-89.6-132.14-145.94-40.25-63.96-80.04-128.21-120.02-192.34-10.25-16.44-16.18-34.33-16.75-53.72-1.09-36.66,12.6-66.87,40.72-90.41,52.61-44.05,105.56-87.7,157.88-132.1,49.93-42.37,87.33-93.63,109.45-155.86,23.33-65.64,38.42-132.93,44.21-202.33,8.83-105.96,3.06-210.99-20.53-314.81-10.96-48.21-26.64-94.79-49.67-138.72-12.42-23.7-27.11-45.85-45.15-65.68-16.01-17.6-34.61-31.77-56.45-42.05Z"/>
  <path class="cls-3" d="M322.46,1658.53c1.16-1.04,3.19-.13,5.02-.39,2.66-.38,4.34-1.59,4.5-4.4.18-3.05.36-6.19-3.27-7.52-3.1-1.14-6.29-2.02-9.41-3.1-23.39-8.11-44.23-20.81-63.86-35.64-22.13-16.73-41.03-36.62-56.6-59.54-15.54-22.86-27.09-47.46-34.79-74.25-6.91-24.03-8.41-48.19-7.69-72.76.34-11.61,7.66-18.83,19.4-20.27.99-.12,2,.02,2.99-.08,1.95-.2,4.22-.21,4.82-2.57.48-1.9-1.21-3.06-2.54-3.91-5.13-3.29-8.75-8.14-13.1-12.23-19.3-18.16-34.61-39.37-46.66-62.76-10.34-20.07-17.46-41.4-22.76-63.47-4.98-20.72-3.42-41.57-3.8-62.42-.14-7.52,5.47-10.88,10.95-14.5-4.42-7.03-12.03-10.31-17.99-15.37-28.37-24.1-49.36-53.46-64.99-87.01-11.74-25.19-18.46-51.78-21.85-79.16-1.38-11.16-.76-22.64-.19-33.93.22-4.35-.48-8.56-.38-12.85.08-3.37,1.12-4.91,4.61-4.64,2.32.18,4.66.02,6.99.02,75.64,0,151.27.18,226.91-.07,38.6-.13,73.75,11.3,106.38,30.91,36.12,21.71,63.38,51.99,82.89,89.28,11.64,22.25,18.68,45.87,21.65,70.83.75,6.28,1.24,12.51,1.26,18.8.06,22.95-.85,45.95,1.39,68.81,1.32,13.46,2.3,26.97,3.7,40.41,1.4,13.49,3.07,26.94,4.94,40.35,3.24,23.19,8.23,46.12,14.5,68.6,8.85,31.77,19.19,63.16,33.41,93.04,13.1,27.53,27.62,54.23,44.57,79.71,14.36,21.58,30.21,41.93,46.83,61.64,7.64,9.06,15.38,18.32,24.45,26.23,3.97,3.46,7.54,7.6,10.47,11.98,4.34,6.5,5.01,13.52.41,20.44-5.03,7.57-11.21,12.12-21.14,12.09-95.96-.29-191.92-.24-287.88-.29-1.54,0-3.07,0-4.14,0Z"/>
  <path class="cls-2" d="M699.47.41h8.74c109.59,0,219.19,0,328.78.01,11.85,0,10.82-1.36,10.83,10.53.02,64.62-.01,129.25.04,193.87,0,6.37-.28,12.66-2.45,18.71-8.35,23.19-36.82,33.04-57.69,19.9-2.8-1.77-5.37-3.94-7.92-6.07-91.25-76.22-182.48-152.45-273.7-228.7-2.52-2.11-4.95-4.32-7.43-6.49.27-.59.54-1.18.81-1.77Z"/>
  <path class="cls-2" d="M1443.91,1.6c-1.6,3.05-4.53,4.68-6.94,6.7-91.47,76.48-182.99,152.89-274.42,229.4-10.19,8.53-21.18,13.58-34.79,10.97-18.71-3.59-31.27-17.39-32.83-36.33-.24-2.98-.12-5.99-.12-8.99,0-63.96,0-127.92,0-191.87,0-2.33.05-4.66.01-7-.04-2.94,1.42-4.2,4.3-4.08,1.66.07,3.33,0,5,0,110.93,0,221.85,0,332.78.04,2.17,0,4.55-.82,7.02,1.15Z"/>
  <path class="cls-2" d="M460.62,1013.62c4.87-.42,7.45,2.63,10.33,4.54,26.15,17.31,47.74,39.26,63.38,66.38,14.52,25.17,23.89,52.2,26.83,81.53,1.94,19.3,1.2,38.51,1.2,57.75,0,22.26,3.11,44.22,5.04,66.29.8,9.19,1.72,18.44,3.6,27.46,6.7,32.18,13.37,64.32,24.23,95.54,8.08,23.24,17.08,46.07,28.19,67.87,13.83,27.13,29.52,53.28,48.19,77.55,16.01,20.81,32.58,41.07,51.35,59.46.71.7,1.24,1.91,2.05,2.13,9.86,2.66,7.52,10.61,7.64,17.45.1,5.33-.11,10.66.06,15.99.12,3.86-1.39,5.21-5.28,5.17-15.96-.16-31.92-.07-48.55-.07.79-8.42,2.09-16.11,2.07-23.94-.05-15.77-5.62-29.5-16.38-40.43-19.12-19.41-37.07-39.79-53.81-61.24-7.11-9.1-13.82-18.56-20.1-28.25-13.33-20.58-26.36-41.36-36.57-63.74-12.37-27.1-23.76-54.47-32.2-83.2-8.87-30.17-15.67-60.74-20.41-91.68-2.58-16.87-3.89-34.06-5.27-51.17-2.23-27.56-.96-55.13-2.37-82.62-.7-13.66-2.72-27.39-5.24-41.03-4.5-24.35-13.08-47.03-23.8-69.11-1.29-2.66-3.79-4.7-4.16-8.62Z"/>
</svg>