<?xml version="1.0" encoding="UTF-8"?>
<svg id="_레이어_1" data-name="레이어_1" xmlns="http://www.w3.org/2000/svg" viewBox="0 0 2155.59 1658.8">
  <defs>
    <style>
      .cls-1 {
        fill: #2a49e8;
      }
    </style>
  </defs>
  <path class="cls-1" d="M930.83,1656.38c44.11-8.89,79.47-31.24,104.96-68.4,44.35-64.66,36.74-148.49-22.91-204.4-17.47-16.37-36.87-30.67-55.23-46.09-160.98-135.2-321.9-270.46-482.89-405.64-48.23-40.49-96.93-80.42-144.55-121.64-9.82-8.5-20.36-16.17-30.12-24.73-81.48-71.41-133.62-159.99-148.63-267.49-21.92-156.99,26.11-290.52,142.68-398.54,56.63-52.47,122.78-87.61,198.24-104.7,22.41-5.07,45.06-8.75,68.65-9.42-1.76,3.79-5.14,2.86-7.46,3.59-60.22,18.96-99.67,58.26-113.57,120.1-12.82,57.03,5.19,106.36,45.83,146.77,20.7,20.59,44.79,37.76,67.25,56.59,205.05,171.88,410.14,343.72,615.04,515.78,19.11,16.05,39.42,30.69,56.92,48.71,63.48,65.36,105.85,142.11,120.71,232.15,23.57,142.74-9.71,270.95-106.91,379.51-70.81,79.08-159.95,127.02-265.16,144.02-14.12,2.28-28.39,3.71-42.84,3.83Z"/>
  <path class="cls-1" d="M1700.16,928.58c151.68,243.19,303.02,485.82,455.43,730.16h-11.39c-48.67,0-97.33.07-146-.01-202.45-.35-387.94-103.38-495.26-275.11-38.48-61.58-76.88-123.21-115.28-184.83-23.08-37.04-24.8-75.08-4.81-113.89,6.48-12.59,15.74-23.05,26.62-32.12,54.25-45.26,108.94-89.99,162.54-136,44.08-37.83,78.62-83.17,99.92-137.75,23.6-60.47,39.11-122.96,46.93-187.43,7.24-59.71,8.83-119.59,5.37-179.56-4.55-78.73-16.17-156.28-41.71-231.25-12.28-36.05-27.58-70.73-48.68-102.61-14.79-22.35-31.66-42.86-53.35-59.02-9.56-7.12-20.03-12.67-30.42-18.92,10.41,0,20.85-.58,31.21.09,68.64,4.44,135.09,19.19,199.2,44,83.38,32.26,158.42,77.7,220.5,142.79,42.23,44.28,76.89,93.69,98.26,151.54,18.98,51.39,25.59,104.59,22.28,159.11-6.81,112.21-57.94,202.81-137.95,278.56-77.9,73.75-170.87,120.57-273.71,148.87-2.25.62-4.5,1.23-6.72,1.9-.62.19-1.18.58-2.95,1.5Z"/>
  <path class="cls-1" d="M105.86,1158.57c-4.23-5.73-9.88-8.18-14.46-11.95-35.53-29.26-60.54-66.07-76.42-108.91-11.3-30.46-16.49-62.18-14.48-94.84.08-1.32.61-2.64.55-3.94-.21-4.19-2.7-9.28.85-12.24,3.21-2.68,8.33-.98,12.59-.98,75.98-.06,151.95.06,227.93-.14,12.74-.03,25.11,1.84,37.42,4.56,28.22,6.24,54.31,17.66,77.8,34.34,33.74,23.97,59.07,55.04,76.17,92.88,12.82,28.38,17.99,58.11,17.41,89.01-.36,19.31-.21,38.64,1.54,57.82,1.26,13.81,2.55,27.69,3.62,41.48,1.81,23.53,5.85,46.67,10.53,69.62,6.52,32.03,15.56,63.46,27.07,94.16,14.74,39.3,33.48,76.56,56.22,111.76,13.31,20.61,28.01,40.26,44.01,58.92,10.8,12.6,21.63,25.16,33.56,36.73,2.61,2.53,4.75,5.55,7.07,8.37,4.95,6,5.66,12.8,2.32,19.52-3.82,7.67-9.57,13.83-18.88,13.93-24.99.25-49.98.09-74.98.09-65.98,0-131.96,0-197.94,0h-25.1c1.96-1.88,3.71-1.19,5.3-1.33,2.87-.25,6.24.63,6.75-3.89.48-4.3-1.06-6.8-5.39-8.02-17.38-4.92-33.29-13.06-48.61-22.47-24.23-14.88-45.57-33.11-63.9-54.85-16.38-19.43-29.82-40.7-39.63-64.16-8.2-19.6-13.95-39.84-16.98-60.97-1.96-13.64-1.27-27.21-1.26-40.8,0-12.93,7.13-20,20.15-21.38,1.32-.14,2.7.02,3.97-.29,3.51-.86,4.38-3.51,1.48-5.64-5.43-3.98-9.81-8.95-14.56-13.61-20.83-20.44-37.19-43.83-49.8-70.25-11.42-23.94-18.91-48.93-22.45-74.91-1.96-14.39-.67-29.26-.46-43.9.1-6.83,5.77-10.04,11-13.7Z"/>
  <path class="cls-1" d="M699.59,1.53c2.68-2.04,5.42-1.08,7.9-1.08,110.23-.06,220.47-.06,330.7-.06,1.67,0,3.34.1,4.99,0,3.74-.22,5.65,1.3,5.35,5.21-.1,1.32,0,2.66,0,3.99,0,66.25.05,132.5-.04,198.74-.03,20.93-11.97,35.89-31.76,40.22-12.65,2.77-23.69-.86-33.44-8.97-18.69-15.54-37.34-31.12-56-46.7-73.35-61.23-146.71-122.46-220.02-183.75-2.68-2.24-6.04-3.97-7.68-7.61Z"/>
  <path class="cls-1" d="M1444.93.6c-.86,3.82-3.51,4.94-5.45,6.56-92.25,77.08-184.63,154-276.75,231.24-19.01,15.94-39.94,12.51-52.9,1.66-8.89-7.44-13.71-17.03-13.78-28.75-.08-12.32-.06-24.64-.06-36.96,0-53.94,0-107.88,0-161.82,0-2.33.1-4.67,0-6.99-.18-3.94,1.82-5.38,5.5-5.15,1.33.08,2.66,0,4,0,111.92,0,223.84,0,335.76.01.98,0,1.97.1,3.67.2Z"/>
  <path class="cls-1" d="M461.64,1013.65c13.21,5.72,24.04,14.48,34.43,23.7,27.52,24.4,46.24,54.77,57.59,89.43,6.29,19.22,9.53,39.26,9.21,59.7-.19,12.32.23,24.65-.1,36.97-.4,14.98,1.94,29.7,3.06,44.54,1.17,15.56,2.46,31.13,5.31,46.38,6.24,33.37,12.97,66.64,24.71,98.74,6.85,18.73,13.97,37.24,22.31,55.38,12.53,27.26,27.63,52.98,44.77,77.47,18.7,26.72,39.12,52.22,63.29,74.18,5.78,5.25,7.36,9.59,7,16.31-.3,5.65-.16,11.32-.05,16.98.07,3.75-1.41,5.38-5.31,5.36-15.94-.11-31.88-.05-48.54-.05,1.01-8.63,2.21-16.38,2.12-24.24-.17-15.72-5.63-29.48-16.53-40.42-19-19.08-36.59-39.34-53.19-60.47-15.81-20.12-29.46-41.71-42.22-63.85-15.12-26.24-27.33-53.87-37.57-82.32-9.3-25.84-16.85-52.19-22.07-79.23-2.57-13.31-6.01-26.5-7.54-39.97-1.97-17.38-4.35-34.71-5.75-52.18-2.27-28.24-.77-56.52-2.47-84.68-1.09-17.96-3.08-36.04-7.93-53.73-6.07-22.11-14.41-43.17-24.52-63.97Z"/>
</svg>